<svg width="846" height="421" viewBox="0 0 846 421" fill="none" xmlns="http://www.w3.org/2000/svg">
<rect x="1" y="1" width="844" height="419" rx="9" stroke="#A7A9AD" stroke-width="2"/>
<path d="M1.5 55.5H845" stroke="#A7A9AD" stroke-width="2" stroke-linecap="round"/>
<path d="M1.5 189H845" stroke="#A7A9AD" stroke-width="2" stroke-linecap="round"/>
<path d="M33.952 22.04V29.784H35.664V26.648H37.648V25.24H35.664V22.04H33.952ZM24.56 24.52H32.96V23.208H29.616V21.928H27.872V23.208H24.56V24.52ZM25.28 27.32C25.28 28.76 26.656 29.624 28.752 29.624C30.848 29.624 32.208 28.76 32.208 27.32C32.208 25.88 30.848 24.968 28.752 24.968C26.656 24.968 25.28 25.88 25.28 27.32ZM26.432 31.688H33.968V32.648H26.464V36.184H36.112V34.872H28.16V33.848H35.664V30.424H26.432V31.688ZM26.944 27.32C26.944 26.616 27.632 26.232 28.752 26.232C29.856 26.232 30.544 26.616 30.544 27.32C30.544 28.008 29.856 28.408 28.752 28.408C27.632 28.408 26.944 28.008 26.944 27.32ZM48.5444 22.072V32.36H50.2724V22.072H48.5444ZM38.8004 26.568C38.8004 28.648 40.4484 30.136 42.5924 30.136C44.7524 30.136 46.4004 28.648 46.4004 26.568C46.4004 24.488 44.7524 23 42.5924 23C40.4484 23 38.8004 24.488 38.8004 26.568ZM40.4804 26.568C40.4804 25.304 41.3924 24.504 42.5924 24.504C43.8084 24.504 44.7044 25.304 44.7044 26.568C44.7044 27.832 43.8084 28.632 42.5924 28.632C41.3924 28.632 40.4804 27.832 40.4804 26.568ZM40.9604 36.024H50.6884V34.616H42.6884V31.32H40.9604V36.024ZM62.6088 22.056V24.216H59.7608V23.096H53.1368V29.56H59.7608V28.44H62.6088V30.44H64.3368V22.056H62.6088ZM54.7688 33.544C54.7688 35.288 56.6088 36.28 59.5848 36.28C62.5608 36.28 64.4008 35.288 64.4008 33.544C64.4008 31.832 62.5608 30.808 59.5848 30.808C56.6088 30.808 54.7688 31.832 54.7688 33.544ZM54.8328 28.2V24.472H58.0648V28.2H54.8328ZM56.4808 33.544C56.4808 32.632 57.6008 32.152 59.5848 32.152C61.5688 32.152 62.6728 32.632 62.6728 33.544C62.6728 34.456 61.5688 34.936 59.5848 34.936C57.6008 34.936 56.4808 34.456 56.4808 33.544ZM59.7608 27.048V25.608H62.6088V27.048H59.7608Z" fill="#1D1E1F"/>
<path d="M25.072 85.528V86.76H28.272V88.296C28.272 90.728 26.704 93.384 24.592 94.376L25.44 95.544C27.072 94.744 28.384 93 29.024 90.984C29.68 92.872 30.992 94.456 32.624 95.192L33.456 94.024C31.312 93.096 29.76 90.664 29.76 88.296V86.76H32.976V85.528H25.072ZM34.72 98.248H36.192V84.12H34.72V98.248ZM40.7844 93.192V94.376H48.7844V98.248H50.2564V93.192H40.7844ZM38.8004 88.312C38.8004 90.312 40.3524 91.72 42.4644 91.72C43.6484 91.72 44.6724 91.256 45.3284 90.488H48.7844V92.44H50.2564V84.12H48.7844V86.152H45.3444C44.6884 85.368 43.6484 84.888 42.4644 84.888C40.3524 84.888 38.8004 86.328 38.8004 88.312ZM40.1924 88.312C40.1924 87.016 41.1524 86.152 42.4644 86.152C43.7284 86.152 44.7044 87.016 44.7044 88.312C44.7044 89.608 43.7284 90.488 42.4644 90.488C41.1524 90.488 40.1924 89.608 40.1924 88.312ZM45.9844 89.288C46.0644 88.984 46.1124 88.664 46.1124 88.312C46.1124 87.976 46.0644 87.64 45.9684 87.336H48.7844V89.288H45.9844ZM65.7683 84.088V91.832H67.2403V88.584H69.2723V87.384H67.2403V84.088H65.7683ZM56.2803 86.456H64.6163V85.32H61.1763V83.976H59.6883V85.32H56.2803V86.456ZM57.0323 89.336C57.0323 90.76 58.3763 91.64 60.4403 91.64C62.4883 91.64 63.8483 90.76 63.8483 89.336C63.8483 87.912 62.4883 87.016 60.4403 87.016C58.3763 87.016 57.0323 87.912 57.0323 89.336ZM58.1843 93.608H65.7843V94.712H58.2163V98.104H67.7043V96.968H59.6723V95.768H67.2403V92.52H58.1843V93.608ZM58.4403 89.336C58.4403 88.568 59.2083 88.104 60.4403 88.104C61.6403 88.104 62.4243 88.568 62.4243 89.336C62.4243 90.104 61.6403 90.584 60.4403 90.584C59.2083 90.584 58.4403 90.104 58.4403 89.336ZM80.3606 84.12V94.392H81.8326V84.12H80.3606ZM70.5366 88.584C70.5366 90.632 72.1366 92.088 74.2486 92.088C76.3766 92.088 77.9766 90.632 77.9766 88.584C77.9766 86.536 76.3766 85.08 74.2486 85.08C72.1366 85.08 70.5366 86.536 70.5366 88.584ZM71.9766 88.584C71.9766 87.256 72.9526 86.36 74.2486 86.36C75.5606 86.36 76.5366 87.256 76.5366 88.584C76.5366 89.912 75.5606 90.808 74.2486 90.808C72.9526 90.808 71.9766 89.912 71.9766 88.584ZM72.7126 97.944H82.2646V96.728H74.1686V93.352H72.7126V97.944Z" fill="#1D1E1F"/>
<path d="M24.912 219.128V220.328H28V220.728C28 222.696 26.672 224.52 24.496 225.256L25.264 226.44C26.928 225.848 28.16 224.616 28.768 223.064C29.376 224.424 30.528 225.48 32.112 225.992L32.832 224.84C30.72 224.168 29.472 222.52 29.472 220.712V220.328H32.496V219.128H24.912ZM26.384 229.576C26.384 231.224 28.16 232.216 31.056 232.216C33.936 232.216 35.728 231.224 35.728 229.576C35.728 227.912 33.936 226.936 31.056 226.936C28.16 226.936 26.384 227.912 26.384 229.576ZM27.824 229.576C27.824 228.616 29.04 228.104 31.056 228.104C33.072 228.104 34.272 228.616 34.272 229.576C34.272 230.504 33.072 231.048 31.056 231.048C29.04 231.048 27.824 230.504 27.824 229.576ZM34.112 226.584H35.6V222.84H37.616V221.608H35.6V218.12H34.112V226.584ZM41.7604 219.24C39.9364 219.24 38.7524 221.144 38.7524 224.2C38.7524 227.272 39.9364 229.192 41.7604 229.192C43.6004 229.192 44.7844 227.272 44.7844 224.2C44.7844 221.144 43.6004 219.24 41.7604 219.24ZM40.0964 224.2C40.0964 221.96 40.7364 220.632 41.7604 220.632C42.8004 220.632 43.4404 221.96 43.4404 224.2C43.4404 226.472 42.8004 227.8 41.7604 227.8C40.7364 227.8 40.0964 226.472 40.0964 224.2ZM46.0804 231.544H47.4724V224.856H49.2004V232.232H50.6244V218.104H49.2004V223.656H47.4724V218.408H46.0804V231.544ZM62.6888 218.12V228.392H64.1608V218.12H62.6888ZM52.8648 222.584C52.8648 224.632 54.4648 226.088 56.5768 226.088C58.7048 226.088 60.3048 224.632 60.3048 222.584C60.3048 220.536 58.7048 219.08 56.5768 219.08C54.4648 219.08 52.8648 220.536 52.8648 222.584ZM54.3048 222.584C54.3048 221.256 55.2808 220.36 56.5768 220.36C57.8888 220.36 58.8648 221.256 58.8648 222.584C58.8648 223.912 57.8888 224.808 56.5768 224.808C55.2808 224.808 54.3048 223.912 54.3048 222.584ZM55.0408 231.944H64.5928V230.728H56.4968V227.352H55.0408V231.944ZM71.4731 218.712H70.0811L66.6891 231.832H68.0971L71.4731 218.712ZM74.7393 218.76V219.96H82.8673C82.8673 220.984 82.8513 222.184 82.4993 223.752H73.1233V224.968H78.7713V227.384H74.4513V228.568H82.8993V232.248H84.3553V227.384H80.2273V224.968H85.9073V223.752H83.9713C84.3073 222.12 84.3073 220.872 84.3073 219.816V218.76H74.7393ZM96.5316 218.088V232.232H98.0036V224.984H100.196V223.752H98.0036V218.088H96.5316ZM87.1396 228.472L87.9556 229.608C92.5476 227.304 94.3396 223.688 94.3396 219.608H87.8116V220.808H92.8516C92.5636 224.104 90.6436 226.696 87.1396 228.472ZM101.092 226.104V227.304H104.276V232.232H105.78V227.304H109.124V232.232H110.628V227.304H113.876V226.104H101.092ZM102.484 221.752C102.484 223.64 104.484 224.84 107.444 224.84C110.42 224.84 112.42 223.64 112.42 221.752C112.42 219.848 110.42 218.664 107.444 218.664C104.484 218.664 102.484 219.848 102.484 221.752ZM103.988 221.752C103.988 220.584 105.38 219.832 107.444 219.832C109.54 219.832 110.916 220.584 110.916 221.752C110.916 222.92 109.54 223.656 107.444 223.656C105.38 223.656 103.988 222.92 103.988 221.752ZM121.396 226.984C118.388 226.984 116.468 227.976 116.468 229.608C116.468 231.24 118.388 232.2 121.396 232.2C124.42 232.2 126.34 231.24 126.34 229.608C126.34 227.976 124.42 226.984 121.396 226.984ZM115.092 225.8H127.812V224.616H121.652V221.96H120.196V224.616H115.092V225.8ZM116.58 219.976H124.772V219.992C124.772 221.08 124.772 222.136 124.388 223.576L125.844 223.736C126.228 222.28 126.228 221.128 126.228 219.992V218.808H116.58V219.976ZM117.94 229.608C117.94 228.664 119.268 228.136 121.396 228.136C123.54 228.136 124.884 228.664 124.884 229.608C124.884 230.52 123.54 231.08 121.396 231.08C119.268 231.08 117.94 230.52 117.94 229.608ZM129.333 219.528V220.76H132.469V222.296C132.469 224.696 130.901 227.352 128.805 228.376L129.669 229.544C131.269 228.728 132.581 226.968 133.221 224.968C133.845 226.824 135.109 228.424 136.677 229.192L137.509 228.024C135.397 227.016 133.925 224.52 133.925 222.296V220.76H136.965V219.528H129.333ZM138.485 232.248H139.957V224.968H142.197V223.736H139.957V218.12H138.485V232.248Z" fill="#1D1E1F"/>
<path d="M217.624 89.688C217 89.688 216.424 89.832 215.896 90.088L215.976 86.888H220.648V85.576H214.664L214.52 91.272L215.512 91.832C216.008 91.352 216.856 91.048 217.592 91.048C218.888 91.048 219.96 92.024 219.96 93.368C219.96 94.632 218.92 95.64 217.592 95.64C216.616 95.64 215.624 95.128 215.16 94.504L214.984 94.232L213.768 94.888C213.848 95.032 213.96 95.176 214.008 95.24C214.744 96.344 216.248 97.016 217.592 97.016C219.64 97.016 221.304 95.448 221.304 93.368C221.304 91.352 219.672 89.688 217.624 89.688ZM224.734 95.672H223.246L222.718 98.968H223.758L224.734 95.672ZM233.393 94.472C233.153 94.968 232.593 95.608 231.361 95.608C230.113 95.608 229.569 94.968 229.313 94.456C228.817 93.656 228.769 92.696 228.769 91.208C228.769 89.72 228.817 88.776 229.313 87.96C229.569 87.464 230.113 86.824 231.361 86.824C232.593 86.824 233.153 87.48 233.393 87.976C233.905 88.776 233.937 89.72 233.937 91.208C233.937 92.712 233.905 93.672 233.393 94.472ZM227.377 91.208C227.377 92.696 227.393 94.024 228.097 95.192C228.513 95.96 229.489 97 231.361 97C233.233 97 234.209 95.976 234.641 95.192C235.329 94.04 235.329 92.728 235.329 91.208C235.329 89.736 235.329 88.408 234.641 87.256C234.209 86.488 233.233 85.448 231.361 85.448C229.489 85.448 228.513 86.472 228.097 87.256C227.393 88.408 227.377 89.72 227.377 91.208ZM242.878 94.472C242.638 94.968 242.078 95.608 240.846 95.608C239.598 95.608 239.054 94.968 238.798 94.456C238.302 93.656 238.254 92.696 238.254 91.208C238.254 89.72 238.302 88.776 238.798 87.96C239.054 87.464 239.598 86.824 240.846 86.824C242.078 86.824 242.638 87.48 242.878 87.976C243.39 88.776 243.422 89.72 243.422 91.208C243.422 92.712 243.39 93.672 242.878 94.472ZM236.862 91.208C236.862 92.696 236.878 94.024 237.582 95.192C237.998 95.96 238.974 97 240.846 97C242.718 97 243.694 95.976 244.126 95.192C244.814 94.04 244.814 92.728 244.814 91.208C244.814 89.736 244.814 88.408 244.126 87.256C243.694 86.488 242.718 85.448 240.846 85.448C238.974 85.448 237.998 86.472 237.582 87.256C236.878 88.408 236.862 89.72 236.862 91.208ZM252.362 94.472C252.122 94.968 251.562 95.608 250.33 95.608C249.082 95.608 248.538 94.968 248.282 94.456C247.786 93.656 247.738 92.696 247.738 91.208C247.738 89.72 247.786 88.776 248.282 87.96C248.538 87.464 249.082 86.824 250.33 86.824C251.562 86.824 252.122 87.48 252.362 87.976C252.874 88.776 252.906 89.72 252.906 91.208C252.906 92.712 252.874 93.672 252.362 94.472ZM246.346 91.208C246.346 92.696 246.362 94.024 247.066 95.192C247.482 95.96 248.458 97 250.33 97C252.202 97 253.178 95.976 253.61 95.192C254.298 94.04 254.298 92.728 254.298 91.208C254.298 89.736 254.298 88.408 253.61 87.256C253.178 86.488 252.202 85.448 250.33 85.448C248.458 85.448 247.482 86.472 247.066 87.256C246.362 88.408 246.346 89.72 246.346 91.208ZM265.831 84.12V92.44H263.015V93.48H265.831V94.84H267.303V84.12H265.831ZM255.607 90.584L255.799 91.784C256.935 91.784 258.231 91.768 259.591 91.704V94.376H261.079V91.624C262.311 91.544 263.575 91.416 264.775 91.224L264.663 90.152C261.687 90.536 258.215 90.568 255.607 90.584ZM256.695 87.144C256.695 88.632 258.119 89.608 260.183 89.608C262.231 89.608 263.655 88.632 263.655 87.144C263.655 85.656 262.231 84.664 260.183 84.664C258.119 84.664 256.695 85.656 256.695 87.144ZM257.543 97.944H267.639V96.728H259.015V93.8H257.543V97.944ZM258.087 87.144C258.087 86.296 258.951 85.768 260.183 85.768C261.399 85.768 262.263 86.296 262.263 87.144C262.263 87.992 261.399 88.536 260.183 88.536C258.951 88.536 258.087 87.992 258.087 87.144Z" fill="#1D1E1F"/>
<path d="M217.624 223.688C217 223.688 216.424 223.832 215.896 224.088L215.976 220.888H220.648V219.576H214.664L214.52 225.272L215.512 225.832C216.008 225.352 216.856 225.048 217.592 225.048C218.888 225.048 219.96 226.024 219.96 227.368C219.96 228.632 218.92 229.64 217.592 229.64C216.616 229.64 215.624 229.128 215.16 228.504L214.984 228.232L213.768 228.888C213.848 229.032 213.96 229.176 214.008 229.24C214.744 230.344 216.248 231.016 217.592 231.016C219.64 231.016 221.304 229.448 221.304 227.368C221.304 225.352 219.672 223.688 217.624 223.688ZM224.734 229.672H223.246L222.718 232.968H223.758L224.734 229.672ZM233.393 228.472C233.153 228.968 232.593 229.608 231.361 229.608C230.113 229.608 229.569 228.968 229.313 228.456C228.817 227.656 228.769 226.696 228.769 225.208C228.769 223.72 228.817 222.776 229.313 221.96C229.569 221.464 230.113 220.824 231.361 220.824C232.593 220.824 233.153 221.48 233.393 221.976C233.905 222.776 233.937 223.72 233.937 225.208C233.937 226.712 233.905 227.672 233.393 228.472ZM227.377 225.208C227.377 226.696 227.393 228.024 228.097 229.192C228.513 229.96 229.489 231 231.361 231C233.233 231 234.209 229.976 234.641 229.192C235.329 228.04 235.329 226.728 235.329 225.208C235.329 223.736 235.329 222.408 234.641 221.256C234.209 220.488 233.233 219.448 231.361 219.448C229.489 219.448 228.513 220.472 228.097 221.256C227.393 222.408 227.377 223.72 227.377 225.208ZM242.878 228.472C242.638 228.968 242.078 229.608 240.846 229.608C239.598 229.608 239.054 228.968 238.798 228.456C238.302 227.656 238.254 226.696 238.254 225.208C238.254 223.72 238.302 222.776 238.798 221.96C239.054 221.464 239.598 220.824 240.846 220.824C242.078 220.824 242.638 221.48 242.878 221.976C243.39 222.776 243.422 223.72 243.422 225.208C243.422 226.712 243.39 227.672 242.878 228.472ZM236.862 225.208C236.862 226.696 236.878 228.024 237.582 229.192C237.998 229.96 238.974 231 240.846 231C242.718 231 243.694 229.976 244.126 229.192C244.814 228.04 244.814 226.728 244.814 225.208C244.814 223.736 244.814 222.408 244.126 221.256C243.694 220.488 242.718 219.448 240.846 219.448C238.974 219.448 237.998 220.472 237.582 221.256C236.878 222.408 236.862 223.72 236.862 225.208ZM252.362 228.472C252.122 228.968 251.562 229.608 250.33 229.608C249.082 229.608 248.538 228.968 248.282 228.456C247.786 227.656 247.738 226.696 247.738 225.208C247.738 223.72 247.786 222.776 248.282 221.96C248.538 221.464 249.082 220.824 250.33 220.824C251.562 220.824 252.122 221.48 252.362 221.976C252.874 222.776 252.906 223.72 252.906 225.208C252.906 226.712 252.874 227.672 252.362 228.472ZM246.346 225.208C246.346 226.696 246.362 228.024 247.066 229.192C247.482 229.96 248.458 231 250.33 231C252.202 231 253.178 229.976 253.61 229.192C254.298 228.04 254.298 226.728 254.298 225.208C254.298 223.736 254.298 222.408 253.61 221.256C253.178 220.488 252.202 219.448 250.33 219.448C248.458 219.448 247.482 220.472 247.066 221.256C246.362 222.408 246.346 223.72 246.346 225.208ZM265.831 218.12V226.44H263.015V227.48H265.831V228.84H267.303V218.12H265.831ZM255.607 224.584L255.799 225.784C256.935 225.784 258.231 225.768 259.591 225.704V228.376H261.079V225.624C262.311 225.544 263.575 225.416 264.775 225.224L264.663 224.152C261.687 224.536 258.215 224.568 255.607 224.584ZM256.695 221.144C256.695 222.632 258.119 223.608 260.183 223.608C262.231 223.608 263.655 222.632 263.655 221.144C263.655 219.656 262.231 218.664 260.183 218.664C258.119 218.664 256.695 219.656 256.695 221.144ZM257.543 231.944H267.639V230.728H259.015V227.8H257.543V231.944ZM258.087 221.144C258.087 220.296 258.951 219.768 260.183 219.768C261.399 219.768 262.263 220.296 262.263 221.144C262.263 221.992 261.399 222.536 260.183 222.536C258.951 222.536 258.087 221.992 258.087 221.144Z" fill="#1D1E1F"/>
<path d="M404.272 85.56H402.912L400.64 86.792L401.232 88.008L402.912 87.128V96.888H404.272V85.56ZM416.267 84.12V94.392H417.739V84.12H416.267ZM406.443 88.584C406.443 90.632 408.043 92.088 410.155 92.088C412.283 92.088 413.883 90.632 413.883 88.584C413.883 86.536 412.283 85.08 410.155 85.08C408.043 85.08 406.443 86.536 406.443 88.584ZM407.883 88.584C407.883 87.256 408.859 86.36 410.155 86.36C411.467 86.36 412.443 87.256 412.443 88.584C412.443 89.912 411.467 90.808 410.155 90.808C408.859 90.808 407.883 89.912 407.883 88.584ZM408.619 97.944H418.171V96.728H410.075V93.352H408.619V97.944ZM427.491 85.56H426.131L423.859 86.792L424.451 88.008L426.131 87.128V96.888H427.491V85.56ZM439.982 84.104V89.656H438.254V84.408H436.862V97.544H438.254V90.856H439.982V98.232H441.406V84.104H439.982ZM429.854 94.504H435.278V85.704H429.854V94.504ZM431.23 93.352V86.872H433.886V93.352H431.23Z" fill="#1D1E1F"/>
<path d="M404.272 219.56H402.912L400.64 220.792L401.232 222.008L402.912 221.128V230.888H404.272V219.56ZM416.267 218.12V228.392H417.739V218.12H416.267ZM406.443 222.584C406.443 224.632 408.043 226.088 410.155 226.088C412.283 226.088 413.883 224.632 413.883 222.584C413.883 220.536 412.283 219.08 410.155 219.08C408.043 219.08 406.443 220.536 406.443 222.584ZM407.883 222.584C407.883 221.256 408.859 220.36 410.155 220.36C411.467 220.36 412.443 221.256 412.443 222.584C412.443 223.912 411.467 224.808 410.155 224.808C408.859 224.808 407.883 223.912 407.883 222.584ZM408.619 231.944H418.171V230.728H410.075V227.352H408.619V231.944ZM425.555 222.008L425.443 222.328L424.115 222.008C424.163 221.832 424.227 221.656 424.323 221.496C425.123 219.768 427.251 219.048 429.027 219.816C430.883 220.504 431.651 222.536 430.819 224.328C430.643 224.664 430.435 225.016 430.131 225.304L426.003 229.368H431.395V230.728H423.987V229.4L429.187 224.264C429.315 224.104 429.475 223.912 429.555 223.736C430.035 222.728 429.603 221.528 428.467 221.032C427.315 220.552 426.083 221.016 425.555 222.008ZM443.372 218.104V223.656H441.644V218.408H440.252V231.544H441.644V224.856H443.372V232.232H444.796V218.104H443.372ZM433.244 228.504H438.668V219.704H433.244V228.504ZM434.62 227.352V220.872H437.276V227.352H434.62Z" fill="#1D1E1F"/>
<path d="M587.224 91.16C587.224 90.68 587.299 90.296 587.448 90.008C587.608 89.7093 587.822 89.496 588.088 89.368C588.366 89.24 588.67 89.176 589 89.176C589.331 89.176 589.63 89.24 589.896 89.368C590.163 89.496 590.376 89.7093 590.536 90.008C590.696 90.296 590.776 90.68 590.776 91.16C590.776 91.6293 590.696 92.0133 590.536 92.312C590.376 92.6 590.163 92.8133 589.896 92.952C589.63 93.08 589.331 93.144 589 93.144C588.67 93.144 588.366 93.08 588.088 92.952C587.822 92.8133 587.608 92.6 587.448 92.312C587.299 92.0133 587.224 91.6293 587.224 91.16ZM601.592 90.968V92.152H607.224V93.704H603.016V94.888H611.304V98.248H612.792V93.704H608.68V92.152H614.36V90.968H601.592ZM603.256 89.768H612.712V84.456H611.24V85.96H604.712V84.456H603.256V89.768ZM604.712 88.584V87.096H611.24V88.584H604.712ZM619.336 85.176C617.24 85.176 615.736 87.08 615.736 90.12C615.736 93.144 617.24 95.08 619.336 95.08C621.416 95.08 622.904 93.144 622.904 90.12C622.904 87.08 621.416 85.176 619.336 85.176ZM617.16 90.12C617.16 87.88 618.04 86.504 619.336 86.504C620.616 86.504 621.496 87.88 621.496 90.12C621.496 92.376 620.616 93.768 619.336 93.768C618.04 93.768 617.16 92.376 617.16 90.12ZM625 98.248H626.472V90.904H628.696V89.672H626.472V84.12H625V98.248ZM639.753 84.12V87.816H637.513V89.016H639.753V90.808H637.513V91.992H639.753V94.888H641.241V84.12H639.753ZM629.593 86.952H637.481V85.784H634.329V84.104H632.857V85.784H629.593V86.952ZM630.361 90.408C630.361 92.008 631.705 93.112 633.593 93.112C635.497 93.112 636.809 92.008 636.809 90.408C636.809 88.776 635.497 87.672 633.593 87.672C631.705 87.672 630.361 88.776 630.361 90.408ZM631.769 90.408C631.769 89.448 632.505 88.824 633.593 88.824C634.681 88.824 635.417 89.448 635.417 90.408C635.417 91.336 634.681 91.96 633.593 91.96C632.505 91.96 631.769 91.336 631.769 90.408ZM632.105 97.944H641.561V96.728H633.577V93.976H632.105V97.944ZM643.561 91V92.184H656.313V91H650.649V89.48H654.825V88.296H646.617V85.912H654.729V84.744H645.145V89.48H649.209V91H643.561ZM645.065 95.672C645.065 97.304 646.889 98.216 649.913 98.216C652.937 98.216 654.761 97.304 654.761 95.672C654.761 94.04 652.937 93.096 649.913 93.096C646.889 93.096 645.065 94.04 645.065 95.672ZM646.537 95.672C646.537 94.76 647.785 94.264 649.913 94.264C652.025 94.264 653.257 94.76 653.257 95.672C653.257 96.584 652.025 97.08 649.913 97.08C647.785 97.08 646.537 96.584 646.537 95.672ZM668.154 84.104V98.232H669.578V84.104H668.154ZM657.706 90.2C657.706 93.272 658.89 95.192 660.714 95.192C662.442 95.192 663.594 93.496 663.722 90.744H665.354V97.544H666.73V84.408H665.354V89.528H663.722C663.562 86.872 662.41 85.24 660.714 85.24C658.89 85.24 657.706 87.144 657.706 90.2ZM659.049 90.2C659.049 87.96 659.69 86.632 660.714 86.632C661.754 86.632 662.394 87.96 662.394 90.2C662.394 92.472 661.754 93.8 660.714 93.8C659.69 93.8 659.049 92.472 659.049 90.2ZM685.409 84.12V89.704H682.241V90.936H685.409V98.248H686.865V84.12H685.409ZM675.169 94.472L675.969 95.608C680.721 93.256 682.305 89.704 682.305 85.608H675.793V86.808H680.817C680.561 90.056 678.913 92.632 675.169 94.472ZM689.186 92.072V93.288H694.802V98.232H696.258V93.288H701.954V92.072H689.186ZM689.906 89.832L690.466 91C692.722 90.632 694.722 89.48 695.57 87.864C696.434 89.48 698.418 90.632 700.69 91L701.234 89.832C698.61 89.464 696.418 87.88 696.386 86.12H700.738V84.952H690.354V86.12H694.754C694.722 87.88 692.53 89.464 689.906 89.832ZM703.17 90.68V91.864H708.802V93.224C706.21 93.368 704.69 94.248 704.69 95.72C704.69 97.304 706.498 98.2 709.538 98.2C712.562 98.2 714.386 97.304 714.386 95.72C714.386 94.248 712.85 93.368 710.258 93.224V91.864H715.938V90.68H703.17ZM703.842 88.728L704.37 89.896C706.77 89.624 708.786 88.584 709.554 87.08C710.306 88.584 712.322 89.624 714.738 89.896L715.266 88.728C712.706 88.488 710.738 87.32 710.546 85.928H714.786V84.744H704.338V85.928H708.578C708.386 87.32 706.37 88.488 703.842 88.728ZM706.162 95.72C706.162 94.824 707.41 94.36 709.538 94.36C711.65 94.36 712.882 94.824 712.882 95.72C712.882 96.6 711.65 97.064 709.538 97.064C707.41 97.064 706.162 96.6 706.162 95.72ZM727.283 84.12V94.392H728.755V84.12H727.283ZM717.459 88.584C717.459 90.632 719.059 92.088 721.171 92.088C723.299 92.088 724.899 90.632 724.899 88.584C724.899 86.536 723.299 85.08 721.171 85.08C719.059 85.08 717.459 86.536 717.459 88.584ZM718.899 88.584C718.899 87.256 719.875 86.36 721.171 86.36C722.483 86.36 723.459 87.256 723.459 88.584C723.459 89.912 722.483 90.808 721.171 90.808C719.875 90.808 718.899 89.912 718.899 88.584ZM719.635 97.944H729.187V96.728H721.091V93.352H719.635V97.944ZM734.826 92.072V93.288H740.442V98.232H741.898V93.288H747.594V92.072H734.826ZM735.546 89.832L736.106 91C738.362 90.632 740.362 89.48 741.21 87.864C742.074 89.48 744.058 90.632 746.33 91L746.874 89.832C744.25 89.464 742.058 87.88 742.026 86.12H746.378V84.952H735.994V86.12H740.394C740.362 87.88 738.17 89.464 735.546 89.832ZM749.547 85.304V91.96H756.203V85.304H749.547ZM750.971 90.76V86.504H754.747V90.76H750.971ZM751.291 97.8H760.843V96.616H752.747V93.304H751.291V97.8ZM758.939 94.232H760.411V84.12H758.939V94.232ZM773.419 84.104V98.232H774.843V84.104H773.419ZM762.971 90.2C762.971 93.272 764.155 95.192 765.979 95.192C767.707 95.192 768.859 93.496 768.987 90.744H770.619V97.544H771.995V84.408H770.619V89.528H768.987C768.827 86.872 767.675 85.24 765.979 85.24C764.155 85.24 762.971 87.144 762.971 90.2ZM764.315 90.2C764.315 87.96 764.955 86.632 765.979 86.632C767.019 86.632 767.659 87.96 767.659 90.2C767.659 92.472 767.019 93.8 765.979 93.8C764.955 93.8 764.315 92.472 764.315 90.2ZM789.987 84.12V94.696H791.459V89.912H793.475V88.696H791.459V84.12H789.987ZM780.499 86.952H788.835V85.784H785.395V84.12H783.907V85.784H780.499V86.952ZM781.251 90.328C781.251 91.928 782.643 92.968 784.659 92.968C786.659 92.968 788.067 91.928 788.067 90.328C788.067 88.744 786.659 87.672 784.659 87.672C782.643 87.672 781.251 88.744 781.251 90.328ZM782.595 97.944H792.051V96.728H784.051V93.88H782.595V97.944ZM782.659 90.328C782.659 89.4 783.475 88.808 784.659 88.808C785.843 88.808 786.643 89.4 786.643 90.328C786.643 91.256 785.843 91.848 784.659 91.848C783.475 91.848 782.659 91.256 782.659 90.328ZM803.971 84.12V92.616H805.443V89.032H807.459V87.8H805.443V84.12H803.971ZM794.483 86.728H802.819V85.544H799.379V84.008H797.891V85.544H794.483V86.728ZM795.235 89.896C795.235 91.416 796.611 92.408 798.643 92.408C800.659 92.408 802.051 91.416 802.051 89.896C802.051 88.376 800.659 87.368 798.643 87.368C796.611 87.368 795.235 88.376 795.235 89.896ZM796.499 98.04H805.443V93.368H796.499V98.04ZM796.643 89.896C796.643 89.032 797.443 88.488 798.643 88.488C799.827 88.488 800.627 89.032 800.627 89.896C800.627 90.76 799.827 91.304 798.643 91.304C797.443 91.304 796.643 90.76 796.643 89.896ZM797.955 96.872V94.552H803.987V96.872H797.955ZM587.224 119.16C587.224 118.68 587.299 118.296 587.448 118.008C587.608 117.709 587.822 117.496 588.088 117.368C588.366 117.24 588.67 117.176 589 117.176C589.331 117.176 589.63 117.24 589.896 117.368C590.163 117.496 590.376 117.709 590.536 118.008C590.696 118.296 590.776 118.68 590.776 119.16C590.776 119.629 590.696 120.013 590.536 120.312C590.376 120.6 590.163 120.813 589.896 120.952C589.63 121.08 589.331 121.144 589 121.144C588.67 121.144 588.366 121.08 588.088 120.952C587.822 120.813 587.608 120.6 587.448 120.312C587.299 120.013 587.224 119.629 587.224 119.16ZM602.472 113.368V122.888H603.608C606.264 122.888 608.152 122.824 610.376 122.44L610.232 121.24C608.152 121.592 606.36 121.688 603.912 121.688V118.488H608.84V117.32H603.912V114.568H609.368V113.368H602.472ZM611.752 126.248H613.224V112.12H611.752V126.248ZM626.168 112.12V121.672H627.576V112.12H626.168ZM615.64 120.216L616.36 121.288C618.616 120.312 620.072 119 620.904 117.4H623.352V120.408H624.744V112.36H623.352V116.2H621.4C621.688 115.304 621.816 114.312 621.816 113.272H616.328V114.472H620.344C620.296 114.984 620.2 115.48 620.056 115.944L615.672 116.216L615.896 117.432L619.576 117.048C618.84 118.328 617.592 119.384 615.64 120.216ZM617.32 125.016L617.896 126.184C620.056 125.816 621.928 124.728 622.792 123.192C623.672 124.728 625.544 125.816 627.72 126.184L628.28 125.016C625.64 124.632 623.544 123.048 623.544 121.24V120.856H622.056V121.24C622.056 123.048 619.96 124.632 617.32 125.016ZM638.864 112.6V113.352C638.864 115.256 636.608 117 633.856 117.4L634.448 118.568C636.736 118.2 638.736 117.016 639.648 115.336C640.56 117 642.56 118.2 644.832 118.568L645.424 117.4C642.704 117 640.4 115.224 640.4 113.352V112.6H638.864ZM633.248 121.192H638.864V126.248H640.32V121.192H646.016V119.976H633.248V121.192ZM647.793 112.904V114.088H652.433V115.848H647.809V120.12H648.833C651.649 120.12 653.073 120.088 654.785 119.768L654.641 118.584C653.057 118.856 651.745 118.92 649.281 118.92V116.968H653.905V112.904H647.793ZM649.505 123.688C649.505 125.352 651.297 126.312 654.241 126.312C657.169 126.312 658.977 125.352 658.977 123.688C658.977 122.024 657.169 121.064 654.241 121.064C651.297 121.064 649.505 122.024 649.505 123.688ZM650.961 123.688C650.961 122.728 652.161 122.2 654.241 122.2C656.289 122.2 657.505 122.728 657.505 123.688C657.505 124.648 656.289 125.176 654.241 125.176C652.161 125.176 650.961 124.648 650.961 123.688ZM654.817 118.328H657.441V120.808H658.913V112.12H657.441V114.248H654.817V115.448H657.441V117.144H654.817V118.328ZM668.569 113.288V115.72C668.569 118.408 667.001 121.112 664.825 122.12L665.721 123.336C667.385 122.504 668.697 120.792 669.337 118.728C669.993 120.664 671.257 122.264 672.873 123.048L673.753 121.88C671.593 120.904 670.057 118.312 670.057 115.72V113.288H668.569ZM675.033 126.264H676.505V112.088H675.033V126.264ZM682.576 114.456V115.656H689.504V114.456H686.784V112.52H685.328V114.456H682.576ZM683.008 119.752C683.008 121.704 684.288 123.016 686.048 123.016C687.824 123.016 689.104 121.704 689.104 119.752C689.104 117.864 687.824 116.52 686.048 116.52C684.288 116.52 683.008 117.864 683.008 119.752ZM684.32 119.752C684.32 118.584 685.04 117.768 686.048 117.768C687.056 117.768 687.776 118.584 687.776 119.752C687.776 120.984 687.056 121.8 686.048 121.8C685.04 121.8 684.32 120.984 684.32 119.752ZM690.16 125.56H691.552V119.208H693.184V126.232H694.576V112.104H693.184V118.008H691.552V112.424H690.16V125.56ZM706.081 112.104V120.456H707.569V116.936H709.569V115.704H707.569V112.104H706.081ZM697.137 119.416H698.257C701.297 119.416 702.945 119.32 704.849 118.936L704.689 117.752C702.897 118.12 701.361 118.216 698.593 118.216V114.36H703.393V113.144H697.137V119.416ZM698.337 123.464C698.337 125.192 700.145 126.232 703.009 126.232C705.905 126.232 707.681 125.192 707.681 123.464C707.681 121.768 705.905 120.728 703.009 120.728C700.145 120.728 698.337 121.768 698.337 123.464ZM699.793 123.464C699.793 122.456 700.993 121.912 703.009 121.912C705.025 121.912 706.241 122.456 706.241 123.464C706.241 124.456 705.025 125.032 703.009 125.032C700.993 125.032 699.793 124.456 699.793 123.464ZM724.825 112.104V117.784H723.017V112.408H721.625V125.512H723.017V119H724.825V126.232H726.233V112.104H724.825ZM714.889 122.616H715.817C717.305 122.616 718.921 122.552 720.825 122.2L720.665 120.92C719.065 121.224 717.641 121.32 716.361 121.352V113.784H714.889V122.616ZM728.217 119.032V120.216H740.985V119.032H737.881V117.128C738.969 116.664 739.593 115.944 739.593 115C739.593 113.336 737.673 112.36 734.585 112.36C731.513 112.36 729.609 113.336 729.609 115C729.609 115.944 730.217 116.664 731.305 117.128V119.032H728.217ZM729.737 123.704C729.737 125.304 731.545 126.216 734.585 126.216C737.609 126.216 739.433 125.304 739.433 123.704C739.433 122.088 737.609 121.176 734.585 121.176C731.545 121.176 729.737 122.088 729.737 123.704ZM731.113 115C731.113 114.04 732.441 113.496 734.585 113.496C736.761 113.496 738.073 114.04 738.073 115C738.073 115.96 736.761 116.504 734.585 116.504C732.441 116.504 731.113 115.96 731.113 115ZM731.209 123.704C731.209 122.808 732.457 122.312 734.585 122.312C736.697 122.312 737.929 122.808 737.929 123.704C737.929 124.6 736.697 125.08 734.585 125.08C732.457 125.08 731.209 124.6 731.209 123.704ZM732.761 119.032V117.512C733.305 117.608 733.913 117.656 734.585 117.656C735.257 117.656 735.865 117.608 736.425 117.512V119.032H732.761ZM745.889 118.776V119.976H758.657V118.776H745.889ZM746.561 116.84L747.089 118.008C749.489 117.736 751.505 116.696 752.273 115.192C753.025 116.696 755.041 117.736 757.457 118.008L757.985 116.84C755.409 116.584 753.425 115.416 753.265 114.008H757.505V112.824H747.057V114.008H751.297C751.137 115.432 749.105 116.584 746.561 116.84ZM747.409 123.656C747.409 125.272 749.233 126.2 752.257 126.2C755.281 126.2 757.105 125.272 757.105 123.656C757.105 122.024 755.281 121.08 752.257 121.08C749.233 121.08 747.409 122.024 747.409 123.656ZM748.881 123.656C748.881 122.712 750.129 122.232 752.257 122.232C754.369 122.232 755.601 122.712 755.601 123.656C755.601 124.552 754.369 125.048 752.257 125.048C750.129 125.048 748.881 124.552 748.881 123.656ZM760.625 112.984V119.576H767.281V112.984H765.809V115.064H762.065V112.984H760.625ZM762.033 123.56C762.033 125.24 763.841 126.216 766.785 126.216C769.729 126.216 771.537 125.24 771.537 123.56C771.537 121.896 769.729 120.92 766.785 120.92C763.841 120.92 762.033 121.896 762.033 123.56ZM762.065 118.408V116.216H765.809V118.408H762.065ZM763.489 123.56C763.489 122.6 764.689 122.04 766.785 122.04C768.849 122.04 770.065 122.6 770.065 123.56C770.065 124.52 768.849 125.048 766.785 125.048C764.689 125.048 763.489 124.52 763.489 123.56ZM770.001 120.632H771.473V112.12H770.001V120.632ZM787.705 112.12V119.4H789.177V112.12H787.705ZM777.801 117.784L777.961 118.984C780.425 118.984 783.689 118.904 786.473 118.472L786.393 117.4C785.769 117.48 785.113 117.528 784.441 117.576V114.2H785.753V113.048H778.185V114.2H779.497V117.768L777.801 117.784ZM779.897 121.224H787.721V122.488H779.929V126.088H789.673V124.92H781.369V123.56H789.177V120.072H779.897V121.224ZM780.905 117.736V114.2H783.017V117.656C782.313 117.704 781.593 117.72 780.905 117.736ZM797.146 112.6V113.352C797.146 115.256 794.89 117 792.138 117.4L792.73 118.568C795.018 118.2 797.018 117.016 797.93 115.336C798.842 117 800.842 118.2 803.114 118.568L803.706 117.4C800.986 117 798.682 115.224 798.682 113.352V112.6H797.146ZM791.53 121.192H797.146V126.248H798.602V121.192H804.298V119.976H791.53V121.192ZM587.224 147.16C587.224 146.68 587.299 146.296 587.448 146.008C587.608 145.709 587.822 145.496 588.088 145.368C588.366 145.24 588.67 145.176 589 145.176C589.331 145.176 589.63 145.24 589.896 145.368C590.163 145.496 590.376 145.709 590.536 146.008C590.696 146.296 590.776 146.68 590.776 147.16C590.776 147.629 590.696 148.013 590.536 148.312C590.376 148.6 590.163 148.813 589.896 148.952C589.63 149.08 589.331 149.144 589 149.144C588.67 149.144 588.366 149.08 588.088 148.952C587.822 148.813 587.608 148.6 587.448 148.312C587.299 148.013 587.224 147.629 587.224 147.16ZM602.376 141.464V150.728H608.936V141.464H602.376ZM603.816 149.544V142.648H607.512V149.544H603.816ZM611.704 154.264H613.176V140.088H611.704V154.264ZM616.056 141.528V142.76H619.256V144.296C619.256 146.728 617.688 149.384 615.576 150.376L616.424 151.544C618.056 150.744 619.368 149 620.008 146.984C620.664 148.872 621.976 150.456 623.608 151.192L624.44 150.024C622.296 149.096 620.744 146.664 620.744 144.296V142.76H623.96V141.528H616.056ZM625.704 154.248H627.176V140.12H625.704V154.248ZM629.945 141.704V142.888H632.985V143.032C632.985 144.824 631.673 146.44 629.545 147.08L630.249 148.232C631.897 147.704 633.145 146.6 633.753 145.192C634.377 146.472 635.561 147.496 637.177 147.976L637.865 146.824C635.737 146.216 634.457 144.68 634.457 143.032V142.888H637.497V141.704H634.457V140.072H632.985V141.704H629.945ZM631.625 154.04H640.553V149.096H631.625V154.04ZM633.065 152.872V150.264H639.097V152.872H633.065ZM639.081 148.456H640.553V144.856H642.569V143.608H640.553V140.12H639.081V148.456ZM647.209 141.288V143.72C647.209 146.408 645.641 149.112 643.465 150.12L644.361 151.336C646.025 150.504 647.337 148.792 647.977 146.728C648.633 148.664 649.897 150.264 651.513 151.048L652.393 149.88C650.233 148.904 648.697 146.312 648.697 143.72V141.288H647.209ZM653.673 154.264H655.145V140.088H653.673V154.264ZM668.785 143.704V144.92H671.425V148.52H672.897V140.12H671.425V143.704H668.785ZM661.249 147.256L662.001 148.44C663.697 147.832 664.929 146.552 665.537 144.968C666.145 146.36 667.313 147.48 668.881 148.04L669.601 146.888C667.505 146.136 666.225 144.392 666.225 142.6V142.296H669.233V141.096H661.697V142.296H664.753V142.616C664.753 144.584 663.409 146.488 661.249 147.256ZM663.489 151.576C663.489 153.256 665.297 154.232 668.225 154.232C671.153 154.232 672.945 153.256 672.945 151.576C672.945 149.912 671.153 148.936 668.225 148.936C665.297 148.936 663.489 149.912 663.489 151.576ZM664.929 151.576C664.929 150.6 666.161 150.056 668.225 150.056C670.273 150.056 671.489 150.6 671.489 151.576C671.489 152.536 670.273 153.08 668.225 153.08C666.161 153.08 664.929 152.536 664.929 151.576ZM684.625 140.088V154.232H686.097V146.984H688.289V145.752H686.097V140.088H684.625ZM675.233 150.472L676.049 151.608C680.641 149.304 682.433 145.688 682.433 141.608H675.905V142.808H680.945C680.657 146.104 678.737 148.696 675.233 150.472ZM703.497 140.104V145.72H701.673V140.408H700.297V153.512H701.673V146.936H703.497V154.232H704.905V140.104H703.497ZM693.369 150.824H694.313C696.329 150.824 697.785 150.76 699.481 150.424L699.337 149.192C697.849 149.512 696.537 149.576 694.825 149.592V143H698.601V141.816H693.369V150.824ZM716.97 140.088V154.264H718.442V140.088H716.97ZM707.642 150.872H714.362V141.272H712.906V144.952H709.098V141.272H707.642V150.872ZM709.098 149.672V146.104H712.906V149.672H709.098ZM724.786 142.536V143.704H727.874V144.632C727.874 147 726.482 149.4 724.37 150.392L725.186 151.544C726.786 150.76 728.018 149.176 728.626 147.288C729.218 149.048 730.37 150.536 731.89 151.288L732.706 150.168C730.626 149.144 729.33 146.856 729.33 144.632V143.704H732.385V142.536H729.33V140.392H727.874V142.536H724.786ZM733.954 154.248H735.426V147.08H737.666V145.832H735.426V140.12H733.954V154.248ZM741.858 141C739.986 141 738.642 142.376 738.642 144.36C738.642 146.328 739.986 147.704 741.858 147.704C743.698 147.704 745.058 146.328 745.058 144.36C745.058 142.376 743.698 141 741.858 141ZM739.97 144.36C739.97 143.096 740.77 142.248 741.858 142.248C742.93 142.248 743.73 143.096 743.73 144.36C743.73 145.624 742.93 146.488 741.858 146.488C740.77 146.488 739.97 145.624 739.97 144.36ZM740.93 150.472H748.994V154.248H750.45V149.256H740.93V150.472ZM746.034 148.456H747.426V144.888H749.042V148.52H750.45V140.12H749.042V143.688H747.426V140.376H746.034V148.456ZM756.666 141.528V142.76H759.866V144.296C759.866 146.728 758.298 149.384 756.186 150.376L757.034 151.544C758.666 150.744 759.978 149 760.618 146.984C761.274 148.872 762.586 150.456 764.218 151.192L765.05 150.024C762.906 149.096 761.354 146.664 761.354 144.296V142.76H764.57V141.528H756.666ZM766.314 154.248H767.786V140.12H766.314V154.248ZM771.834 140.328V145.016H781.29V140.328H779.818V141.544H773.29V140.328H771.834ZM770.17 147.24H775.802V148.488H771.69V149.592H779.866V150.68H771.738V154.088H781.722V152.968H773.178V151.736H781.322V148.488H777.258V147.24H782.938V146.056H770.17V147.24ZM773.29 143.88V142.664H779.818V143.88H773.29Z" fill="#1D1E1F"/>
<path d="M587.224 225.16C587.224 224.68 587.299 224.296 587.448 224.008C587.608 223.709 587.822 223.496 588.088 223.368C588.366 223.24 588.67 223.176 589 223.176C589.331 223.176 589.63 223.24 589.896 223.368C590.163 223.496 590.376 223.709 590.536 224.008C590.696 224.296 590.776 224.68 590.776 225.16C590.776 225.629 590.696 226.013 590.536 226.312C590.376 226.6 590.163 226.813 589.896 226.952C589.63 227.08 589.331 227.144 589 227.144C588.67 227.144 588.366 227.08 588.088 226.952C587.822 226.813 587.608 226.6 587.448 226.312C587.299 226.013 587.224 225.629 587.224 225.16ZM601.912 219.128V220.328H605V220.728C605 222.696 603.672 224.52 601.496 225.256L602.264 226.44C603.928 225.848 605.16 224.616 605.768 223.064C606.376 224.424 607.528 225.48 609.112 225.992L609.832 224.84C607.72 224.168 606.472 222.52 606.472 220.712V220.328H609.496V219.128H601.912ZM603.384 229.576C603.384 231.224 605.16 232.216 608.056 232.216C610.936 232.216 612.728 231.224 612.728 229.576C612.728 227.912 610.936 226.936 608.056 226.936C605.16 226.936 603.384 227.912 603.384 229.576ZM604.824 229.576C604.824 228.616 606.04 228.104 608.056 228.104C610.072 228.104 611.272 228.616 611.272 229.576C611.272 230.504 610.072 231.048 608.056 231.048C606.04 231.048 604.824 230.504 604.824 229.576ZM611.112 226.584H612.6V222.84H614.616V221.608H612.6V218.12H611.112V226.584ZM618.76 219.24C616.936 219.24 615.752 221.144 615.752 224.2C615.752 227.272 616.936 229.192 618.76 229.192C620.6 229.192 621.784 227.272 621.784 224.2C621.784 221.144 620.6 219.24 618.76 219.24ZM617.096 224.2C617.096 221.96 617.736 220.632 618.76 220.632C619.8 220.632 620.44 221.96 620.44 224.2C620.44 226.472 619.8 227.8 618.76 227.8C617.736 227.8 617.096 226.472 617.096 224.2ZM623.08 231.544H624.472V224.856H626.2V232.232H627.624V218.104H626.2V223.656H624.472V218.408H623.08V231.544ZM639.689 218.12V228.392H641.161V218.12H639.689ZM629.865 222.584C629.865 224.632 631.465 226.088 633.577 226.088C635.705 226.088 637.305 224.632 637.305 222.584C637.305 220.536 635.705 219.08 633.577 219.08C631.465 219.08 629.865 220.536 629.865 222.584ZM631.305 222.584C631.305 221.256 632.281 220.36 633.577 220.36C634.889 220.36 635.865 221.256 635.865 222.584C635.865 223.912 634.889 224.808 633.577 224.808C632.281 224.808 631.305 223.912 631.305 222.584ZM632.041 231.944H641.593V230.728H633.497V227.352H632.041V231.944ZM643.545 225.32V226.52H656.313V225.32H650.649V223.768H654.665V218.456H653.193V219.96H646.665V218.456H645.209V223.768H649.193V225.32H643.545ZM644.969 228.968H653.257V232.248H654.745V227.8H644.969V228.968ZM646.665 222.584V221.096H653.193V222.584H646.665ZM658.01 219.528V220.76H661.21V222.296C661.21 224.728 659.642 227.384 657.53 228.376L658.378 229.544C660.01 228.744 661.322 227 661.962 224.984C662.618 226.872 663.93 228.456 665.562 229.192L666.394 228.024C664.25 227.096 662.698 224.664 662.698 222.296V220.76H665.914V219.528H658.01ZM667.658 232.248H669.13V218.12H667.658V232.248ZM672.186 218.84V225.336H678.65V222.728H681.706V225.832H683.178V218.12H681.706V221.528H678.65V218.84H677.178V220.904H673.658V218.84H672.186ZM673.658 224.152V222.056H677.178V224.152H673.658ZM674.058 232.04H683.162V226.504H681.722V228.088H675.514V226.504H674.058V232.04ZM675.514 230.856V229.24H681.722V230.856H675.514ZM696.122 218.104V232.232H697.546V218.104H696.122ZM685.674 224.2C685.674 227.272 686.858 229.192 688.682 229.192C690.41 229.192 691.562 227.496 691.69 224.744H693.322V231.544H694.698V218.408H693.322V223.528H691.69C691.53 220.872 690.378 219.24 688.682 219.24C686.858 219.24 685.674 221.144 685.674 224.2ZM687.018 224.2C687.018 221.96 687.658 220.632 688.682 220.632C689.722 220.632 690.362 221.96 690.362 224.2C690.362 226.472 689.722 227.8 688.682 227.8C687.658 227.8 687.018 226.472 687.018 224.2ZM707.762 219.112C705.538 219.112 703.938 220.504 703.938 222.472C703.938 224.472 705.538 225.832 707.762 225.832C709.97 225.832 711.57 224.472 711.57 222.472C711.57 220.504 709.97 219.112 707.762 219.112ZM703.266 227.992L703.442 229.224C705.954 229.224 709.378 229.208 712.514 228.584L712.402 227.528C709.362 227.976 705.81 227.992 703.266 227.992ZM705.394 222.472C705.394 221.208 706.386 220.392 707.762 220.392C709.122 220.392 710.13 221.208 710.13 222.472C710.13 223.736 709.122 224.584 707.762 224.584C706.386 224.584 705.394 223.736 705.394 222.472ZM713.282 232.264H714.754V218.088H713.282V232.264ZM717.155 220.456V221.656H724.083V220.456H721.363V218.52H719.907V220.456H717.155ZM717.587 225.752C717.587 227.704 718.867 229.016 720.627 229.016C722.403 229.016 723.683 227.704 723.683 225.752C723.683 223.864 722.403 222.52 720.627 222.52C718.867 222.52 717.587 223.864 717.587 225.752ZM718.899 225.752C718.899 224.584 719.619 223.768 720.627 223.768C721.635 223.768 722.355 224.584 722.355 225.752C722.355 226.984 721.635 227.8 720.627 227.8C719.619 227.8 718.899 226.984 718.899 225.752ZM724.739 231.56H726.131V225.208H727.763V232.232H729.155V218.104H727.763V224.008H726.131V218.424H724.739V231.56ZM734.842 224.76V225.976H747.594V224.76H734.842ZM736.346 229.672C736.346 231.288 738.17 232.2 741.194 232.2C744.218 232.2 746.042 231.288 746.042 229.672C746.042 228.024 744.218 227.096 741.194 227.096C738.17 227.096 736.346 228.024 736.346 229.672ZM736.426 223.512H746.106V222.328H737.898V219.816H746.01V218.632H736.426V223.512ZM737.818 229.672C737.818 228.744 739.066 228.248 741.194 228.248C743.306 228.248 744.538 228.744 744.538 229.672C744.538 230.568 743.306 231.064 741.194 231.064C739.066 231.064 737.818 230.568 737.818 229.672ZM748.811 225.816V227.016H761.595V225.816H755.915V224.456H760.267V223.32H751.899V221.976H759.979V218.456H750.427V219.592H758.523V220.904H750.443V224.456H754.459V225.816H748.811ZM750.235 229.208H758.587V232.12H760.059V228.04H750.235V229.208ZM764.123 219.032V223.848H766.747V225.704C765.387 225.752 764.059 225.768 762.875 225.768L763.067 226.952C765.707 226.952 768.987 226.872 771.979 226.44L771.867 225.384C770.715 225.512 769.483 225.592 768.235 225.656V223.848H770.939V222.664H765.579V220.216H770.859V219.032H764.123ZM765.179 231.944H774.843V230.728H766.635V227.976H765.179V231.944ZM772.939 228.696H774.411V218.12H772.939V228.696ZM780.787 219.128V220.328H783.875V220.728C783.875 222.696 782.547 224.52 780.371 225.256L781.139 226.44C782.803 225.848 784.035 224.616 784.643 223.064C785.251 224.424 786.403 225.48 787.987 225.992L788.707 224.84C786.595 224.168 785.347 222.52 785.347 220.712V220.328H788.371V219.128H780.787ZM782.259 229.576C782.259 231.224 784.035 232.216 786.931 232.216C789.811 232.216 791.603 231.224 791.603 229.576C791.603 227.912 789.811 226.936 786.931 226.936C784.035 226.936 782.259 227.912 782.259 229.576ZM783.699 229.576C783.699 228.616 784.915 228.104 786.931 228.104C788.947 228.104 790.147 228.616 790.147 229.576C790.147 230.504 788.947 231.048 786.931 231.048C784.915 231.048 783.699 230.504 783.699 229.576ZM789.987 226.584H791.475V222.84H793.491V221.608H791.475V218.12H789.987V226.584ZM797.635 219.24C795.811 219.24 794.627 221.144 794.627 224.2C794.627 227.272 795.811 229.192 797.635 229.192C799.475 229.192 800.659 227.272 800.659 224.2C800.659 221.144 799.475 219.24 797.635 219.24ZM795.971 224.2C795.971 221.96 796.611 220.632 797.635 220.632C798.675 220.632 799.315 221.96 799.315 224.2C799.315 226.472 798.675 227.8 797.635 227.8C796.611 227.8 795.971 226.472 795.971 224.2ZM801.955 231.544H803.347V224.856H805.075V232.232H806.499V218.104H805.075V223.656H803.347V218.408H801.955V231.544ZM818.564 218.12V228.392H820.036V218.12H818.564ZM808.74 222.584C808.74 224.632 810.34 226.088 812.452 226.088C814.58 226.088 816.18 224.632 816.18 222.584C816.18 220.536 814.58 219.08 812.452 219.08C810.34 219.08 808.74 220.536 808.74 222.584ZM810.18 222.584C810.18 221.256 811.156 220.36 812.452 220.36C813.764 220.36 814.74 221.256 814.74 222.584C814.74 223.912 813.764 224.808 812.452 224.808C811.156 224.808 810.18 223.912 810.18 222.584ZM810.916 231.944H820.468V230.728H812.372V227.352H810.916V231.944ZM603.256 242.68V248.328H607.24V249.752H601.592V250.952H614.36V249.752H608.696V248.328H612.712V242.68H611.24V244.328H604.712V242.68H603.256ZM603.224 255.944H612.92V254.728H604.68V252.008H603.224V255.944ZM604.712 247.16V245.496H611.24V247.16H604.712ZM625.704 242.12V252.392H627.176V242.12H625.704ZM615.88 246.584C615.88 248.632 617.48 250.088 619.592 250.088C621.72 250.088 623.32 248.632 623.32 246.584C623.32 244.536 621.72 243.08 619.592 243.08C617.48 243.08 615.88 244.536 615.88 246.584ZM617.32 246.584C617.32 245.256 618.296 244.36 619.592 244.36C620.904 244.36 621.88 245.256 621.88 246.584C621.88 247.912 620.904 248.808 619.592 248.808C618.296 248.808 617.32 247.912 617.32 246.584ZM618.056 255.944H627.608V254.728H619.512V251.352H618.056V255.944ZM633.984 243.016V248.84H640.624V243.016H633.984ZM634.912 255.064L635.408 256.184C637.6 255.912 639.456 254.984 640.304 253.72C641.152 254.968 642.976 255.912 645.152 256.184L645.648 255.064C643.12 254.776 641.12 253.464 641.056 252.232H645.152V251.096H641.056V249.784H639.568V251.096H635.472V252.232H639.552C639.488 253.512 637.472 254.776 634.912 255.064ZM635.408 247.672V244.184H639.184V247.672H635.408ZM643.36 250.2H644.848V242.12H643.36V250.2ZM652.536 242.76V243.96H660.664C660.664 244.984 660.648 246.184 660.296 247.752H650.92V248.968H656.568V251.384H652.248V252.568H660.696V256.248H662.152V251.384H658.024V248.968H663.704V247.752H661.768C662.104 246.12 662.104 244.872 662.104 243.816V242.76H652.536ZM674.329 242.088V256.232H675.801V248.984H677.993V247.752H675.801V242.088H674.329ZM664.937 252.472L665.753 253.608C670.345 251.304 672.137 247.688 672.137 243.608H665.609V244.808H670.649C670.361 248.104 668.441 250.696 664.937 252.472ZM678.889 250.104V251.304H682.073V256.232H683.577V251.304H686.921V256.232H688.425V251.304H691.673V250.104H678.889ZM680.281 245.752C680.281 247.64 682.281 248.84 685.241 248.84C688.217 248.84 690.217 247.64 690.217 245.752C690.217 243.848 688.217 242.664 685.241 242.664C682.281 242.664 680.281 243.848 680.281 245.752ZM681.785 245.752C681.785 244.584 683.177 243.832 685.241 243.832C687.337 243.832 688.713 244.584 688.713 245.752C688.713 246.92 687.337 247.656 685.241 247.656C683.177 247.656 681.785 246.92 681.785 245.752ZM699.193 250.984C696.185 250.984 694.265 251.976 694.265 253.608C694.265 255.24 696.185 256.2 699.193 256.2C702.217 256.2 704.137 255.24 704.137 253.608C704.137 251.976 702.217 250.984 699.193 250.984ZM692.889 249.8H705.609V248.616H699.449V245.96H697.993V248.616H692.889V249.8ZM694.377 243.976H702.569V243.992C702.569 245.08 702.569 246.136 702.185 247.576L703.641 247.736C704.025 246.28 704.025 245.128 704.025 243.992V242.808H694.377V243.976ZM695.737 253.608C695.737 252.664 697.065 252.136 699.193 252.136C701.337 252.136 702.681 252.664 702.681 253.608C702.681 254.52 701.337 255.08 699.193 255.08C697.065 255.08 695.737 254.52 695.737 253.608ZM707.13 243.528V244.76H710.266V246.296C710.266 248.696 708.698 251.352 706.602 252.376L707.466 253.544C709.066 252.728 710.378 250.968 711.018 248.968C711.642 250.824 712.906 252.424 714.474 253.192L715.306 252.024C713.194 251.016 711.722 248.52 711.722 246.296V244.76H714.762V243.528H707.13ZM716.282 256.248H717.754V248.968H719.994V247.736H717.754V242.12H716.282V256.248ZM724.53 248.68V249.864H730.162V251.224C727.57 251.368 726.049 252.248 726.049 253.72C726.049 255.304 727.858 256.2 730.898 256.2C733.922 256.2 735.746 255.304 735.746 253.72C735.746 252.248 734.21 251.368 731.618 251.224V249.864H737.298V248.68H724.53ZM725.202 246.728L725.73 247.896C728.13 247.624 730.146 246.584 730.914 245.08C731.666 246.584 733.682 247.624 736.098 247.896L736.626 246.728C734.066 246.488 732.098 245.32 731.906 243.928H736.146V242.744H725.698V243.928H729.938C729.746 245.32 727.73 246.488 725.202 246.728ZM727.522 253.72C727.522 252.824 728.77 252.36 730.898 252.36C733.01 252.36 734.242 252.824 734.242 253.72C734.242 254.6 733.01 255.064 730.898 255.064C728.77 255.064 727.522 254.6 727.522 253.72ZM742.201 253.24V254.456H754.985V253.24H749.257V249.88H747.801V253.24H742.201ZM742.665 248.904L743.273 250.136C745.529 249.656 747.609 248.232 748.537 246.296C749.465 248.248 751.529 249.672 753.801 250.136L754.441 248.904C751.753 248.44 749.305 246.36 749.305 244.104V243.016H747.753V244.104C747.753 246.344 745.321 248.44 742.665 248.904ZM756.666 243.528V244.76H759.866V246.296C759.866 248.728 758.298 251.384 756.186 252.376L757.034 253.544C758.666 252.744 759.978 251 760.618 248.984C761.274 250.872 762.586 252.456 764.218 253.192L765.05 252.024C762.906 251.096 761.354 248.664 761.354 246.296V244.76H764.57V243.528H756.666ZM766.314 256.248H767.786V242.12H766.314V256.248ZM770.442 243.528V244.76H773.578V246.296C773.578 248.696 772.01 251.352 769.914 252.376L770.778 253.544C772.378 252.728 773.69 250.968 774.33 248.968C774.954 250.824 776.218 252.424 777.786 253.192L778.618 252.024C776.506 251.016 775.034 248.52 775.034 246.296V244.76H778.074V243.528H770.442ZM779.594 256.248H781.066V248.968H783.306V247.736H781.066V242.12H779.594V256.248ZM789.506 242.68V248.328H793.49V249.752H787.842V250.952H800.61V249.752H794.946V248.328H798.962V242.68H797.49V244.328H790.962V242.68H789.506ZM789.474 255.944H799.17V254.728H790.93V252.008H789.474V255.944ZM790.962 247.16V245.496H797.49V247.16H790.962ZM811.954 242.12V252.392H813.426V242.12H811.954ZM802.13 246.584C802.13 248.632 803.73 250.088 805.842 250.088C807.97 250.088 809.57 248.632 809.57 246.584C809.57 244.536 807.97 243.08 805.842 243.08C803.73 243.08 802.13 244.536 802.13 246.584ZM803.57 246.584C803.57 245.256 804.546 244.36 805.842 244.36C807.154 244.36 808.13 245.256 808.13 246.584C808.13 247.912 807.154 248.808 805.842 248.808C804.546 248.808 803.57 247.912 803.57 246.584ZM804.306 255.944H813.858V254.728H805.762V251.352H804.306V255.944ZM602.2 267.608V268.808H607.912C607.912 269.976 607.88 271.64 607.512 273.896L608.968 274.056C609.352 271.496 609.352 269.688 609.352 268.488V267.608H602.2ZM601.448 275.992L601.624 277.224C604.088 277.208 607.368 277.128 610.264 276.664L610.2 275.592C608.808 275.768 607.272 275.864 605.768 275.912V271.656H604.328V275.96C603.304 275.976 602.328 275.992 601.448 275.992ZM611.016 280.232H612.472V273.192H614.664V271.96H612.472V266.104H611.016V280.232ZM619.28 273V274.184H632.032V273H626.368V271.48H630.544V270.296H622.336V267.912H630.448V266.744H620.864V271.48H624.928V273H619.28ZM620.784 277.672C620.784 279.304 622.608 280.216 625.632 280.216C628.656 280.216 630.48 279.304 630.48 277.672C630.48 276.04 628.656 275.096 625.632 275.096C622.608 275.096 620.784 276.04 620.784 277.672ZM622.256 277.672C622.256 276.76 623.504 276.264 625.632 276.264C627.744 276.264 628.976 276.76 628.976 277.672C628.976 278.584 627.744 279.08 625.632 279.08C623.504 279.08 622.256 278.584 622.256 277.672ZM642.768 266.12V276.488H644.24V271.544H646.256V270.312H644.24V266.12H642.768ZM633.776 274.168H640.384V267.128H638.912V269.416H635.232V267.128H633.776V274.168ZM635.232 272.984V270.552H638.912V272.984H635.232ZM635.36 279.944H644.816V278.728H636.816V275.496H635.36V279.944ZM654.6 267.56H653.24L650.968 268.792L651.56 270.008L653.24 269.128V278.888H654.6V267.56ZM666.595 266.12V276.392H668.067V266.12H666.595ZM656.771 270.584C656.771 272.632 658.371 274.088 660.483 274.088C662.611 274.088 664.211 272.632 664.211 270.584C664.211 268.536 662.611 267.08 660.483 267.08C658.371 267.08 656.771 268.536 656.771 270.584ZM658.211 270.584C658.211 269.256 659.187 268.36 660.483 268.36C661.795 268.36 662.771 269.256 662.771 270.584C662.771 271.912 661.795 272.808 660.483 272.808C659.187 272.808 658.211 271.912 658.211 270.584ZM658.947 279.944H668.499V278.728H660.403V275.352H658.947V279.944ZM680.083 266.104V280.232H681.555V273.096H683.619V271.848H681.555V266.104H680.083ZM670.323 276.28L671.491 277.112C674.035 274.376 674.675 271.144 674.675 267.608H670.819V268.824H673.251C673.123 271.672 672.371 274.12 670.323 276.28ZM674.323 277.224L675.507 278.04C678.067 274.968 678.515 271.208 678.515 267.608H675.123V268.824H677.139C677.043 271.848 676.435 274.76 674.323 277.224ZM684.916 267.528V268.76H688.116V270.296C688.116 272.728 686.548 275.384 684.436 276.376L685.284 277.544C686.916 276.744 688.228 275 688.868 272.984C689.524 274.872 690.836 276.456 692.468 277.192L693.3 276.024C691.156 275.096 689.604 272.664 689.604 270.296V268.76H692.82V267.528H684.916ZM694.564 280.248H696.036V266.12H694.564V280.248ZM711.628 266.088V273.832H713.1V270.584H715.132V269.384H713.1V266.088H711.628ZM702.14 268.456H710.476V267.32H707.036V265.976H705.548V267.32H702.14V268.456ZM702.892 271.336C702.892 272.76 704.236 273.64 706.3 273.64C708.348 273.64 709.708 272.76 709.708 271.336C709.708 269.912 708.348 269.016 706.3 269.016C704.236 269.016 702.892 269.912 702.892 271.336ZM704.044 275.608H711.644V276.712H704.076V280.104H713.564V278.968H705.532V277.768H713.1V274.52H704.044V275.608ZM704.3 271.336C704.3 270.568 705.068 270.104 706.3 270.104C707.5 270.104 708.284 270.568 708.284 271.336C708.284 272.104 707.5 272.584 706.3 272.584C705.068 272.584 704.3 272.104 704.3 271.336ZM726.22 266.12V276.392H727.692V266.12H726.22ZM716.396 270.584C716.396 272.632 717.996 274.088 720.108 274.088C722.236 274.088 723.836 272.632 723.836 270.584C723.836 268.536 722.236 267.08 720.108 267.08C717.996 267.08 716.396 268.536 716.396 270.584ZM717.836 270.584C717.836 269.256 718.812 268.36 720.108 268.36C721.42 268.36 722.396 269.256 722.396 270.584C722.396 271.912 721.42 272.808 720.108 272.808C718.812 272.808 717.836 271.912 717.836 270.584ZM718.572 279.944H728.124V278.728H720.028V275.352H718.572V279.944ZM741.38 269.72V270.936H743.972V274.552H745.444V266.12H743.972V269.72H741.38ZM733.796 273.192L734.548 274.36C736.228 273.752 737.46 272.52 738.068 270.952C738.676 272.36 739.844 273.496 741.428 274.056L742.148 272.888C740.052 272.152 738.772 270.392 738.772 268.616V268.232H741.78V267.032H734.244V268.232H737.3V268.632C737.3 270.552 735.94 272.44 733.796 273.192ZM735.972 276.472H743.972V280.248H745.444V275.272H735.972V276.472ZM747.748 273.032V274.216H760.516V273.032H757.412V271.128C758.5 270.664 759.124 269.944 759.124 269C759.124 267.336 757.204 266.36 754.116 266.36C751.044 266.36 749.14 267.336 749.14 269C749.14 269.944 749.748 270.664 750.836 271.128V273.032H747.748ZM749.268 277.704C749.268 279.304 751.076 280.216 754.116 280.216C757.14 280.216 758.964 279.304 758.964 277.704C758.964 276.088 757.14 275.176 754.116 275.176C751.076 275.176 749.268 276.088 749.268 277.704ZM750.644 269C750.644 268.04 751.972 267.496 754.116 267.496C756.292 267.496 757.604 268.04 757.604 269C757.604 269.96 756.292 270.504 754.116 270.504C751.972 270.504 750.644 269.96 750.644 269ZM750.74 277.704C750.74 276.808 751.988 276.312 754.116 276.312C756.228 276.312 757.46 276.808 757.46 277.704C757.46 278.6 756.228 279.08 754.116 279.08C751.988 279.08 750.74 278.6 750.74 277.704ZM752.292 273.032V271.512C752.836 271.608 753.444 271.656 754.116 271.656C754.788 271.656 755.396 271.608 755.956 271.512V273.032H752.292ZM587.224 301.16C587.224 300.68 587.299 300.296 587.448 300.008C587.608 299.709 587.822 299.496 588.088 299.368C588.366 299.24 588.67 299.176 589 299.176C589.331 299.176 589.63 299.24 589.896 299.368C590.163 299.496 590.376 299.709 590.536 300.008C590.696 300.296 590.776 300.68 590.776 301.16C590.776 301.629 590.696 302.013 590.536 302.312C590.376 302.6 590.163 302.813 589.896 302.952C589.63 303.08 589.331 303.144 589 303.144C588.67 303.144 588.366 303.08 588.088 302.952C587.822 302.813 587.608 302.6 587.448 302.312C587.299 302.013 587.224 301.629 587.224 301.16ZM602.472 295.368V304.888H603.608C606.264 304.888 608.152 304.824 610.376 304.44L610.232 303.24C608.152 303.592 606.36 303.688 603.912 303.688V300.488H608.84V299.32H603.912V296.568H609.368V295.368H602.472ZM611.752 308.248H613.224V294.12H611.752V308.248ZM626.168 294.12V303.672H627.576V294.12H626.168ZM615.64 302.216L616.36 303.288C618.616 302.312 620.072 301 620.904 299.4H623.352V302.408H624.744V294.36H623.352V298.2H621.4C621.688 297.304 621.816 296.312 621.816 295.272H616.328V296.472H620.344C620.296 296.984 620.2 297.48 620.056 297.944L615.672 298.216L615.896 299.432L619.576 299.048C618.84 300.328 617.592 301.384 615.64 302.216ZM617.32 307.016L617.896 308.184C620.056 307.816 621.928 306.728 622.792 305.192C623.672 306.728 625.544 307.816 627.72 308.184L628.28 307.016C625.64 306.632 623.544 305.048 623.544 303.24V302.856H622.056V303.24C622.056 305.048 619.96 306.632 617.32 307.016ZM638.864 294.6V295.352C638.864 297.256 636.608 299 633.856 299.4L634.448 300.568C636.736 300.2 638.736 299.016 639.648 297.336C640.56 299 642.56 300.2 644.832 300.568L645.424 299.4C642.704 299 640.4 297.224 640.4 295.352V294.6H638.864ZM633.248 303.192H638.864V308.248H640.32V303.192H646.016V301.976H633.248V303.192ZM647.793 294.904V296.088H652.433V297.848H647.809V302.12H648.833C651.649 302.12 653.073 302.088 654.785 301.768L654.641 300.584C653.057 300.856 651.745 300.92 649.281 300.92V298.968H653.905V294.904H647.793ZM649.505 305.688C649.505 307.352 651.297 308.312 654.241 308.312C657.169 308.312 658.977 307.352 658.977 305.688C658.977 304.024 657.169 303.064 654.241 303.064C651.297 303.064 649.505 304.024 649.505 305.688ZM650.961 305.688C650.961 304.728 652.161 304.2 654.241 304.2C656.289 304.2 657.505 304.728 657.505 305.688C657.505 306.648 656.289 307.176 654.241 307.176C652.161 307.176 650.961 306.648 650.961 305.688ZM654.817 300.328H657.441V302.808H658.913V294.12H657.441V296.248H654.817V297.448H657.441V299.144H654.817V300.328ZM668.569 295.288V297.72C668.569 300.408 667.001 303.112 664.825 304.12L665.721 305.336C667.385 304.504 668.697 302.792 669.337 300.728C669.993 302.664 671.257 304.264 672.873 305.048L673.753 303.88C671.593 302.904 670.057 300.312 670.057 297.72V295.288H668.569ZM675.033 308.264H676.505V294.088H675.033V308.264ZM682.576 296.456V297.656H689.504V296.456H686.784V294.52H685.328V296.456H682.576ZM683.008 301.752C683.008 303.704 684.288 305.016 686.048 305.016C687.824 305.016 689.104 303.704 689.104 301.752C689.104 299.864 687.824 298.52 686.048 298.52C684.288 298.52 683.008 299.864 683.008 301.752ZM684.32 301.752C684.32 300.584 685.04 299.768 686.048 299.768C687.056 299.768 687.776 300.584 687.776 301.752C687.776 302.984 687.056 303.8 686.048 303.8C685.04 303.8 684.32 302.984 684.32 301.752ZM690.16 307.56H691.552V301.208H693.184V308.232H694.576V294.104H693.184V300.008H691.552V294.424H690.16V307.56ZM706.081 294.104V302.456H707.569V298.936H709.569V297.704H707.569V294.104H706.081ZM697.137 301.416H698.257C701.297 301.416 702.945 301.32 704.849 300.936L704.689 299.752C702.897 300.12 701.361 300.216 698.593 300.216V296.36H703.393V295.144H697.137V301.416ZM698.337 305.464C698.337 307.192 700.145 308.232 703.009 308.232C705.905 308.232 707.681 307.192 707.681 305.464C707.681 303.768 705.905 302.728 703.009 302.728C700.145 302.728 698.337 303.768 698.337 305.464ZM699.793 305.464C699.793 304.456 700.993 303.912 703.009 303.912C705.025 303.912 706.241 304.456 706.241 305.464C706.241 306.456 705.025 307.032 703.009 307.032C700.993 307.032 699.793 306.456 699.793 305.464ZM724.825 294.104V299.784H723.017V294.408H721.625V307.512H723.017V301H724.825V308.232H726.233V294.104H724.825ZM714.889 304.616H715.817C717.305 304.616 718.921 304.552 720.825 304.2L720.665 302.92C719.065 303.224 717.641 303.32 716.361 303.352V295.784H714.889V304.616ZM728.217 301.032V302.216H740.985V301.032H737.881V299.128C738.969 298.664 739.593 297.944 739.593 297C739.593 295.336 737.673 294.36 734.585 294.36C731.513 294.36 729.609 295.336 729.609 297C729.609 297.944 730.217 298.664 731.305 299.128V301.032H728.217ZM729.737 305.704C729.737 307.304 731.545 308.216 734.585 308.216C737.609 308.216 739.433 307.304 739.433 305.704C739.433 304.088 737.609 303.176 734.585 303.176C731.545 303.176 729.737 304.088 729.737 305.704ZM731.113 297C731.113 296.04 732.441 295.496 734.585 295.496C736.761 295.496 738.073 296.04 738.073 297C738.073 297.96 736.761 298.504 734.585 298.504C732.441 298.504 731.113 297.96 731.113 297ZM731.209 305.704C731.209 304.808 732.457 304.312 734.585 304.312C736.697 304.312 737.929 304.808 737.929 305.704C737.929 306.6 736.697 307.08 734.585 307.08C732.457 307.08 731.209 306.6 731.209 305.704ZM732.761 301.032V299.512C733.305 299.608 733.913 299.656 734.585 299.656C735.257 299.656 735.865 299.608 736.425 299.512V301.032H732.761ZM745.889 300.776V301.976H758.657V300.776H745.889ZM746.561 298.84L747.089 300.008C749.489 299.736 751.505 298.696 752.273 297.192C753.025 298.696 755.041 299.736 757.457 300.008L757.985 298.84C755.409 298.584 753.425 297.416 753.265 296.008H757.505V294.824H747.057V296.008H751.297C751.137 297.432 749.105 298.584 746.561 298.84ZM747.409 305.656C747.409 307.272 749.233 308.2 752.257 308.2C755.281 308.2 757.105 307.272 757.105 305.656C757.105 304.024 755.281 303.08 752.257 303.08C749.233 303.08 747.409 304.024 747.409 305.656ZM748.881 305.656C748.881 304.712 750.129 304.232 752.257 304.232C754.369 304.232 755.601 304.712 755.601 305.656C755.601 306.552 754.369 307.048 752.257 307.048C750.129 307.048 748.881 306.552 748.881 305.656ZM760.625 294.984V301.576H767.281V294.984H765.809V297.064H762.065V294.984H760.625ZM762.033 305.56C762.033 307.24 763.841 308.216 766.785 308.216C769.729 308.216 771.537 307.24 771.537 305.56C771.537 303.896 769.729 302.92 766.785 302.92C763.841 302.92 762.033 303.896 762.033 305.56ZM762.065 300.408V298.216H765.809V300.408H762.065ZM763.489 305.56C763.489 304.6 764.689 304.04 766.785 304.04C768.849 304.04 770.065 304.6 770.065 305.56C770.065 306.52 768.849 307.048 766.785 307.048C764.689 307.048 763.489 306.52 763.489 305.56ZM770.001 302.632H771.473V294.12H770.001V302.632ZM787.705 294.12V301.4H789.177V294.12H787.705ZM777.801 299.784L777.961 300.984C780.425 300.984 783.689 300.904 786.473 300.472L786.393 299.4C785.769 299.48 785.113 299.528 784.441 299.576V296.2H785.753V295.048H778.185V296.2H779.497V299.768L777.801 299.784ZM779.897 303.224H787.721V304.488H779.929V308.088H789.673V306.92H781.369V305.56H789.177V302.072H779.897V303.224ZM780.905 299.736V296.2H783.017V299.656C782.313 299.704 781.593 299.72 780.905 299.736ZM797.146 294.6V295.352C797.146 297.256 794.89 299 792.138 299.4L792.73 300.568C795.018 300.2 797.018 299.016 797.93 297.336C798.842 299 800.842 300.2 803.114 300.568L803.706 299.4C800.986 299 798.682 297.224 798.682 295.352V294.6H797.146ZM791.53 303.192H797.146V308.248H798.602V303.192H804.298V301.976H791.53V303.192ZM587.224 329.16C587.224 328.68 587.299 328.296 587.448 328.008C587.608 327.709 587.822 327.496 588.088 327.368C588.366 327.24 588.67 327.176 589 327.176C589.331 327.176 589.63 327.24 589.896 327.368C590.163 327.496 590.376 327.709 590.536 328.008C590.696 328.296 590.776 328.68 590.776 329.16C590.776 329.629 590.696 330.013 590.536 330.312C590.376 330.6 590.163 330.813 589.896 330.952C589.63 331.08 589.331 331.144 589 331.144C588.67 331.144 588.366 331.08 588.088 330.952C587.822 330.813 587.608 330.6 587.448 330.312C587.299 330.013 587.224 329.629 587.224 329.16ZM602.312 323.192V324.392H607.928C607.928 325.272 607.88 326.424 607.576 327.976L609.032 328.136C609.368 326.312 609.368 324.904 609.368 323.992V323.192H602.312ZM601.464 329.368L601.64 330.584C604.088 330.568 607.432 330.504 610.376 330.008L610.264 328.92C608.856 329.112 607.304 329.224 605.8 329.288V326.376H604.36V329.336C603.32 329.368 602.328 329.368 601.464 329.368ZM603.608 335.944H613.096V334.728H605.08V331.784H603.608V335.944ZM611.16 332.712H612.648V327.864H614.584V326.648H612.648V322.104H611.16V332.712ZM625.096 322.12V330.536H626.568V326.888H628.6V325.656H626.568V322.12H625.096ZM616.12 324.072H621.048V325.736H616.152V329.848H617.272C619.944 329.848 621.8 329.784 623.96 329.4L623.832 328.2C621.784 328.568 620.04 328.648 617.592 328.648V326.84H622.488V322.872H616.12V324.072ZM617.592 336.04H626.568V331.192H617.592V336.04ZM619.032 334.872V332.376H625.112V334.872H619.032ZM629.833 323.528V324.76H632.969V326.296C632.969 328.696 631.401 331.352 629.305 332.376L630.169 333.544C631.769 332.728 633.081 330.968 633.721 328.968C634.345 330.824 635.609 332.424 637.177 333.192L638.009 332.024C635.897 331.016 634.425 328.52 634.425 326.296V324.76H637.465V323.528H629.833ZM638.985 336.248H640.457V328.968H642.697V327.736H640.457V322.12H638.985V336.248ZM648.897 322.68V328.328H652.881V329.752H647.233V330.952H660.001V329.752H654.337V328.328H658.353V322.68H656.881V324.328H650.353V322.68H648.897ZM648.865 335.944H658.561V334.728H650.321V332.008H648.865V335.944ZM650.353 327.16V325.496H656.881V327.16H650.353ZM671.345 322.12V332.392H672.817V322.12H671.345ZM661.521 326.584C661.521 328.632 663.121 330.088 665.233 330.088C667.361 330.088 668.961 328.632 668.961 326.584C668.961 324.536 667.361 323.08 665.233 323.08C663.121 323.08 661.521 324.536 661.521 326.584ZM662.961 326.584C662.961 325.256 663.937 324.36 665.233 324.36C666.545 324.36 667.521 325.256 667.521 326.584C667.521 327.912 666.545 328.808 665.233 328.808C663.937 328.808 662.961 327.912 662.961 326.584ZM663.697 335.944H673.249V334.728H665.153V331.352H663.697V335.944ZM678.889 329.32V330.52H691.657V329.32H685.993V327.768H690.009V322.456H688.537V323.96H682.009V322.456H680.553V327.768H684.537V329.32H678.889ZM680.313 332.968H688.601V336.248H690.089V331.8H680.313V332.968ZM682.009 326.584V325.096H688.537V326.584H682.009ZM693.353 323.528V324.76H696.553V326.296C696.553 328.728 694.985 331.384 692.873 332.376L693.721 333.544C695.353 332.744 696.665 331 697.305 328.984C697.961 330.872 699.273 332.456 700.905 333.192L701.737 332.024C699.593 331.096 698.041 328.664 698.041 326.296V324.76H701.257V323.528H693.353ZM703.001 336.248H704.473V322.12H703.001V336.248ZM714.122 323.544H707.738V324.744H712.666C712.618 325.56 712.49 326.328 712.282 327.064L707.018 327.416L707.226 328.696L711.834 328.248C711.002 330.056 709.482 331.576 706.938 332.824L707.738 333.976C712.842 331.416 714.122 327.72 714.122 323.544ZM716.282 336.232H717.754V328.984H719.946V327.752H717.754V322.088H716.282V336.232ZM722.426 323.384V330.024H732.186V328.824H723.882V324.584H732.042V323.384H722.426ZM720.842 334.36H733.626V333.16H720.842V334.36ZM745.266 323.384V329.72H750.338V328.52H746.738V324.584H750.21V323.384H745.266ZM738.514 334.488H751.298V333.272H745.602V330.392H744.146V333.272H738.514V334.488ZM739.586 329.72H740.402C741.89 329.72 743.154 329.656 744.658 329.336L744.514 328.136C743.298 328.408 742.226 328.472 741.042 328.488V324.616H744.418V323.4H739.586V329.72ZM754.194 322.632V327.448H763.826V326.248H755.634V322.632H754.194ZM752.498 330.424H765.282V329.224H752.498V330.424ZM754.082 335.896H763.922V334.712H755.538V331.768H754.082V335.896ZM601.592 354.104V355.304H604.776V360.232H606.28V355.304H609.624V360.232H611.128V355.304H614.376V354.104H601.592ZM602.984 349.752C602.984 351.64 604.984 352.84 607.944 352.84C610.92 352.84 612.92 351.64 612.92 349.752C612.92 347.848 610.92 346.664 607.944 346.664C604.984 346.664 602.984 347.848 602.984 349.752ZM604.488 349.752C604.488 348.584 605.88 347.832 607.944 347.832C610.04 347.832 611.416 348.584 611.416 349.752C611.416 350.92 610.04 351.656 607.944 351.656C605.88 351.656 604.488 350.92 604.488 349.752ZM621.896 354.984C618.888 354.984 616.968 355.976 616.968 357.608C616.968 359.24 618.888 360.2 621.896 360.2C624.92 360.2 626.84 359.24 626.84 357.608C626.84 355.976 624.92 354.984 621.896 354.984ZM615.592 353.8H628.312V352.616H622.152V349.96H620.696V352.616H615.592V353.8ZM617.08 347.976H625.272V347.992C625.272 349.08 625.272 350.136 624.888 351.576L626.344 351.736C626.728 350.28 626.728 349.128 626.728 347.992V346.808H617.08V347.976ZM618.44 357.608C618.44 356.664 619.768 356.136 621.896 356.136C624.04 356.136 625.384 356.664 625.384 357.608C625.384 358.52 624.04 359.08 621.896 359.08C619.768 359.08 618.44 358.52 618.44 357.608ZM629.833 347.528V348.76H632.969V350.296C632.969 352.696 631.401 355.352 629.305 356.376L630.169 357.544C631.769 356.728 633.081 354.968 633.721 352.968C634.345 354.824 635.609 356.424 637.177 357.192L638.009 356.024C635.897 355.016 634.425 352.52 634.425 350.296V348.76H637.465V347.528H629.833ZM638.985 360.248H640.457V352.968H642.697V351.736H640.457V346.12H638.985V360.248ZM643.545 352.776V353.976H656.313V352.776H643.545ZM644.217 350.84L644.745 352.008C647.145 351.736 649.161 350.696 649.929 349.192C650.681 350.696 652.697 351.736 655.113 352.008L655.641 350.84C653.065 350.584 651.081 349.416 650.921 348.008H655.161V346.824H644.713V348.008H648.953C648.793 349.432 646.761 350.584 644.217 350.84ZM645.065 357.656C645.065 359.272 646.889 360.2 649.913 360.2C652.937 360.2 654.761 359.272 654.761 357.656C654.761 356.024 652.937 355.08 649.913 355.08C646.889 355.08 645.065 356.024 645.065 357.656ZM646.537 357.656C646.537 356.712 647.785 356.232 649.913 356.232C652.025 356.232 653.257 356.712 653.257 357.656C653.257 358.552 652.025 359.048 649.913 359.048C647.785 359.048 646.537 358.552 646.537 357.656ZM667.105 348.456H665.745V352.472H661.729V353.848H665.745V357.848H667.105V353.848H671.121V352.472H667.105V348.456ZM686.626 346.12V356.456H688.098V346.12H686.626ZM676.61 353.288L677.378 354.456C679.042 353.816 680.258 352.488 680.866 350.84C681.474 352.376 682.674 353.592 684.29 354.216L685.042 353.032C682.898 352.28 681.586 350.36 681.586 348.312V346.904H680.082V348.312C680.082 350.44 678.802 352.472 676.61 353.288ZM678.978 359.944H688.53V358.728H680.45V355.496H678.978V359.944ZM690.467 353.496V354.696H696.243V357.304H697.715V354.696H703.251V353.496H690.467ZM692.067 359.944H701.843V358.728H693.523V356.104H692.067V359.944ZM692.147 352.232H701.603V346.568H700.131V348.264H693.603V346.568H692.147V352.232ZM693.603 351.08V349.416H700.131V351.08H693.603ZM704.467 352.776V353.976H717.235V352.776H704.467ZM705.139 350.84L705.667 352.008C708.067 351.736 710.083 350.696 710.851 349.192C711.603 350.696 713.619 351.736 716.035 352.008L716.563 350.84C713.987 350.584 712.003 349.416 711.843 348.008H716.083V346.824H705.635V348.008H709.875C709.715 349.432 707.683 350.584 705.139 350.84ZM705.987 357.656C705.987 359.272 707.811 360.2 710.835 360.2C713.859 360.2 715.683 359.272 715.683 357.656C715.683 356.024 713.859 355.08 710.835 355.08C707.811 355.08 705.987 356.024 705.987 357.656ZM707.459 357.656C707.459 356.712 708.707 356.232 710.835 356.232C712.947 356.232 714.179 356.712 714.179 357.656C714.179 358.552 712.947 359.048 710.835 359.048C708.707 359.048 707.459 358.552 707.459 357.656ZM731.659 346.12V355.624H733.147V351.544H735.147V350.344H733.147V346.12H731.659ZM722.027 354.072L722.219 355.24C724.667 355.24 727.995 355.224 731.003 354.696L730.891 353.656C729.707 353.816 728.443 353.912 727.179 353.976V353.064C728.763 352.888 729.755 352.136 729.755 351.016C729.755 349.72 728.443 348.92 726.443 348.92C724.427 348.92 723.115 349.72 723.115 351.016C723.115 352.136 724.107 352.888 725.707 353.064V354.04C724.395 354.072 723.131 354.072 722.027 354.072ZM722.395 348.424H730.475V347.32H727.179V345.992H725.707V347.32H722.395V348.424ZM723.787 357.464H731.659V360.248H733.147V356.296H723.787V357.464ZM724.507 351.016C724.507 350.312 725.243 349.912 726.443 349.912C727.611 349.912 728.363 350.312 728.363 351.016C728.363 351.688 727.611 352.104 726.443 352.104C725.243 352.104 724.507 351.688 724.507 351.016ZM746.251 346.12V356.392H747.723V346.12H746.251ZM736.427 350.584C736.427 352.632 738.027 354.088 740.139 354.088C742.267 354.088 743.867 352.632 743.867 350.584C743.867 348.536 742.267 347.08 740.139 347.08C738.027 347.08 736.427 348.536 736.427 350.584ZM737.867 350.584C737.867 349.256 738.843 348.36 740.139 348.36C741.451 348.36 742.427 349.256 742.427 350.584C742.427 351.912 741.451 352.808 740.139 352.808C738.843 352.808 737.867 351.912 737.867 350.584ZM738.603 359.944H748.155V358.728H740.059V355.352H738.603V359.944ZM587.224 381.16C587.224 380.68 587.299 380.296 587.448 380.008C587.608 379.709 587.822 379.496 588.088 379.368C588.366 379.24 588.67 379.176 589 379.176C589.331 379.176 589.63 379.24 589.896 379.368C590.163 379.496 590.376 379.709 590.536 380.008C590.696 380.296 590.776 380.68 590.776 381.16C590.776 381.629 590.696 382.013 590.536 382.312C590.376 382.6 590.163 382.813 589.896 382.952C589.63 383.08 589.331 383.144 589 383.144C588.67 383.144 588.366 383.08 588.088 382.952C587.822 382.813 587.608 382.6 587.448 382.312C587.299 382.013 587.224 381.629 587.224 381.16ZM602.376 375.464V384.728H608.936V375.464H602.376ZM603.816 383.544V376.648H607.512V383.544H603.816ZM611.704 388.264H613.176V374.088H611.704V388.264ZM616.056 375.528V376.76H619.256V378.296C619.256 380.728 617.688 383.384 615.576 384.376L616.424 385.544C618.056 384.744 619.368 383 620.008 380.984C620.664 382.872 621.976 384.456 623.608 385.192L624.44 384.024C622.296 383.096 620.744 380.664 620.744 378.296V376.76H623.96V375.528H616.056ZM625.704 388.248H627.176V374.12H625.704V388.248ZM629.945 375.704V376.888H632.985V377.032C632.985 378.824 631.673 380.44 629.545 381.08L630.249 382.232C631.897 381.704 633.145 380.6 633.753 379.192C634.377 380.472 635.561 381.496 637.177 381.976L637.865 380.824C635.737 380.216 634.457 378.68 634.457 377.032V376.888H637.497V375.704H634.457V374.072H632.985V375.704H629.945ZM631.625 388.04H640.553V383.096H631.625V388.04ZM633.065 386.872V384.264H639.097V386.872H633.065ZM639.081 382.456H640.553V378.856H642.569V377.608H640.553V374.12H639.081V382.456ZM647.209 375.288V377.72C647.209 380.408 645.641 383.112 643.465 384.12L644.361 385.336C646.025 384.504 647.337 382.792 647.977 380.728C648.633 382.664 649.897 384.264 651.513 385.048L652.393 383.88C650.233 382.904 648.697 380.312 648.697 377.72V375.288H647.209ZM653.673 388.264H655.145V374.088H653.673V388.264ZM668.785 377.704V378.92H671.425V382.52H672.897V374.12H671.425V377.704H668.785ZM661.249 381.256L662.001 382.44C663.697 381.832 664.929 380.552 665.537 378.968C666.145 380.36 667.313 381.48 668.881 382.04L669.601 380.888C667.505 380.136 666.225 378.392 666.225 376.6V376.296H669.233V375.096H661.697V376.296H664.753V376.616C664.753 378.584 663.409 380.488 661.249 381.256ZM663.489 385.576C663.489 387.256 665.297 388.232 668.225 388.232C671.153 388.232 672.945 387.256 672.945 385.576C672.945 383.912 671.153 382.936 668.225 382.936C665.297 382.936 663.489 383.912 663.489 385.576ZM664.929 385.576C664.929 384.6 666.161 384.056 668.225 384.056C670.273 384.056 671.489 384.6 671.489 385.576C671.489 386.536 670.273 387.08 668.225 387.08C666.161 387.08 664.929 386.536 664.929 385.576ZM684.625 374.088V388.232H686.097V380.984H688.289V379.752H686.097V374.088H684.625ZM675.233 384.472L676.049 385.608C680.641 383.304 682.433 379.688 682.433 375.608H675.905V376.808H680.945C680.657 380.104 678.737 382.696 675.233 384.472ZM703.497 374.104V379.72H701.673V374.408H700.297V387.512H701.673V380.936H703.497V388.232H704.905V374.104H703.497ZM693.369 384.824H694.313C696.329 384.824 697.785 384.76 699.481 384.424L699.337 383.192C697.849 383.512 696.537 383.576 694.825 383.592V377H698.601V375.816H693.369V384.824ZM716.97 374.088V388.264H718.442V374.088H716.97ZM707.642 384.872H714.362V375.272H712.906V378.952H709.098V375.272H707.642V384.872ZM709.098 383.672V380.104H712.906V383.672H709.098ZM724.786 376.536V377.704H727.874V378.632C727.874 381 726.482 383.4 724.37 384.392L725.186 385.544C726.786 384.76 728.018 383.176 728.626 381.288C729.218 383.048 730.37 384.536 731.89 385.288L732.706 384.168C730.626 383.144 729.33 380.856 729.33 378.632V377.704H732.385V376.536H729.33V374.392H727.874V376.536H724.786ZM733.954 388.248H735.426V381.08H737.666V379.832H735.426V374.12H733.954V388.248ZM741.858 375C739.986 375 738.642 376.376 738.642 378.36C738.642 380.328 739.986 381.704 741.858 381.704C743.698 381.704 745.058 380.328 745.058 378.36C745.058 376.376 743.698 375 741.858 375ZM739.97 378.36C739.97 377.096 740.77 376.248 741.858 376.248C742.93 376.248 743.73 377.096 743.73 378.36C743.73 379.624 742.93 380.488 741.858 380.488C740.77 380.488 739.97 379.624 739.97 378.36ZM740.93 384.472H748.994V388.248H750.45V383.256H740.93V384.472ZM746.034 382.456H747.426V378.888H749.042V382.52H750.45V374.12H749.042V377.688H747.426V374.376H746.034V382.456ZM756.666 375.528V376.76H759.866V378.296C759.866 380.728 758.298 383.384 756.186 384.376L757.034 385.544C758.666 384.744 759.978 383 760.618 380.984C761.274 382.872 762.586 384.456 764.218 385.192L765.05 384.024C762.906 383.096 761.354 380.664 761.354 378.296V376.76H764.57V375.528H756.666ZM766.314 388.248H767.786V374.12H766.314V388.248ZM771.834 374.328V379.016H781.29V374.328H779.818V375.544H773.29V374.328H771.834ZM770.17 381.24H775.802V382.488H771.69V383.592H779.866V384.68H771.738V388.088H781.722V386.968H773.178V385.736H781.322V382.488H777.258V381.24H782.938V380.056H770.17V381.24ZM773.29 377.88V376.664H779.818V377.88H773.29Z" fill="#1D1E1F"/>
<path d="M222.872 22.04V36.28H224.6V29.064H226.712V27.624H224.6V22.04H222.872ZM213.512 32.408L214.456 33.72C219.144 31.384 220.856 27.72 220.856 23.544H214.216V24.952H219.128C218.792 28.2 216.92 30.648 213.512 32.408ZM235.048 22.984H228.488V24.376H233.192C232.888 26.504 230.984 28.216 227.72 29.08L228.376 30.456C231.416 29.624 233.544 28.04 234.488 25.832H237.64V27.464H234.264V28.872H237.64V30.536H239.368V22.056H237.64V24.44H234.92C235 23.976 235.048 23.496 235.048 22.984ZM229.752 32.52H237.64V36.248H239.368V31.128H229.752V32.52Z" fill="#1D1E1F"/>
<path d="M411.072 22.04V27.576H409.552V22.328H407.936V35.608H409.552V28.968H411.072V36.296H412.72V22.04H411.072ZM401.008 32.616H406.544V23.608H401.008V32.616ZM402.624 31.272V24.952H404.912V31.272H402.624ZM420.064 22.504V23.24C420.064 25.048 418.08 26.84 415.088 27.256L415.76 28.648C418.144 28.28 420.064 27.096 420.992 25.48C421.904 27.096 423.808 28.28 426.176 28.648L426.864 27.256C423.888 26.84 421.888 25.016 421.888 23.24V22.504H420.064ZM414.528 31.304H420.064V36.296H421.776V31.304H427.408V29.896H414.528V31.304Z" fill="#1D1E1F"/>
<path d="M599.024 22.04V27.672H597.44V22.328H595.824V35.576H597.44V29.08H599.024V36.296H600.688V22.04H599.024ZM589.152 32.712H590.112C591.584 32.712 593.216 32.664 595.104 32.312L594.944 30.824C593.456 31.096 592.112 31.208 590.896 31.224V23.688H589.152V32.712ZM602.528 28.936V30.312H615.392V28.936H612.352V27.112C613.44 26.648 614.048 25.928 614.048 24.984C614.048 23.288 612.08 22.296 608.96 22.296C605.84 22.296 603.888 23.288 603.888 24.984C603.888 25.912 604.48 26.632 605.552 27.096V28.936H602.528ZM604.032 33.72C604.032 35.352 605.872 36.28 608.944 36.28C612 36.28 613.856 35.352 613.856 33.72C613.856 32.088 612 31.16 608.944 31.16C605.872 31.16 604.032 32.088 604.032 33.72ZM605.664 24.984C605.664 24.088 606.896 23.624 608.96 23.624C611.04 23.624 612.256 24.088 612.256 24.984C612.256 25.88 611.04 26.344 608.96 26.344C606.896 26.344 605.664 25.88 605.664 24.984ZM605.776 33.72C605.776 32.904 606.912 32.488 608.944 32.488C610.96 32.488 612.096 32.904 612.096 33.72C612.096 34.552 610.96 34.968 608.944 34.968C606.912 34.968 605.776 34.552 605.776 33.72ZM607.264 28.936V27.56C607.776 27.64 608.352 27.672 608.96 27.672C609.552 27.672 610.112 27.64 610.624 27.56V28.936H607.264Z" fill="#1D1E1F"/>
<path d="M189 1V420" stroke="#A7A9AD" stroke-width="2" stroke-linecap="round"/>
<path d="M376 1V420" stroke="#A7A9AD" stroke-width="2" stroke-linecap="round"/>
<path d="M564 1V420" stroke="#A7A9AD" stroke-width="2" stroke-linecap="round"/>
</svg>
