<svg width="399" height="23" viewBox="0 0 399 23" fill="none" xmlns="http://www.w3.org/2000/svg">
<path d="M281.82 13.3614C281.82 14.1162 281.486 15.1871 281.142 15.7991L283.307 15.7583L284.663 15.3503L286.687 15.7583L286.444 18.4918C286.312 19.8687 285.675 21.1641 285.21 21.9188H284.087C283.813 21.1641 283.55 19.8687 283.459 18.4918L283.328 16.2581L278.057 16.3601L276.144 17.7778L273.099 16.2581L273.322 15.6461L278.046 15.8501L279.129 15.8297C278.927 15.2585 278.593 14.1264 278.593 13.3716V12.6984H275.325L273.301 14.0142L269.7 12.6373L270.033 11.8825L275.325 12.1477H285.574L287.597 10.8727L290.865 11.6275L290.643 12.6984H281.84V13.3512L281.82 13.3614ZM274.414 5.15078L273.403 3.93703L273.514 3.73304L277.682 4.44701L277.571 5.26297V6.19113H282.862V4.549L281.851 3.33525L281.962 3.13126L286.13 3.84523L286.019 4.651V10.2506H277.571L274.647 11.0563H274.424V5.15078H274.414ZM277.571 6.69091V9.73038H282.862V6.69091H277.571Z" fill="#FFFAEF"/>
<path d="M303.219 11.3317C303.219 13.8306 300.942 15.6461 297.543 15.6461C294.143 15.6461 291.867 13.8204 291.867 11.3317C291.867 8.84302 294.275 7.0071 297.543 7.0071C300.811 7.0071 303.219 8.87362 303.219 11.3317ZM299.748 11.3317C299.748 8.97561 299.05 7.41508 297.543 7.41508C296.035 7.41508 295.337 8.97561 295.337 11.3317C295.337 13.6878 296.055 15.2483 297.543 15.2483C299.03 15.2483 299.748 13.7898 299.748 11.3317ZM312.476 12.6475H308.358V15.2177C308.358 17.4514 307.407 20.8989 306.962 21.9086H305.839C305.616 20.8989 305.121 17.6554 305.121 15.8297V5.39557L303.249 2.95787L303.472 2.65189L308.47 3.96763L308.358 5.38537V12.2395H308.652L310.007 10.4137L312.82 10.9237L312.486 12.6475H312.476Z" fill="#FFFAEF"/>
<path d="M317.332 7.74147L314.965 8.95521L312.709 7.53747L312.931 7.0275L317.322 7.31308H321.764L323.342 6.11974L325.821 6.9357L325.71 7.74147H317.332ZM323.727 13.443C322.937 14.412 321.45 15.0239 319.669 15.0239C317.079 15.0239 315.056 13.6878 315.056 11.8825C315.056 10.0772 317.079 8.74102 319.669 8.74102C320.995 8.74102 322.148 9.08781 322.978 9.64878L323.018 9.44479L325.831 9.50599L327.521 9.44479V5.19158L325.649 2.95787L325.871 2.65189L330.869 3.76364L330.758 5.18138V12.3211C330.758 13.9632 329.898 16.4825 329.453 17.2679H328.279C328.097 16.6151 327.693 14.8302 327.561 13.4124L326.276 13.4736L325.194 13.9836L323.706 13.4328L323.727 13.443ZM322.199 5.49756C321.41 5.76275 318.84 6.08914 317.828 6.15033L315.754 4.42661L315.977 4.01863L318.476 4.30421L322.189 4.5898V5.49756H322.199ZM319.68 14.667C320.691 14.667 321.258 13.5348 321.258 11.8927C321.258 10.3526 320.691 9.11841 319.68 9.11841C318.668 9.11841 318.101 10.3526 318.101 11.8927C318.101 13.5348 318.668 14.667 319.68 14.667ZM332.043 19.8789L331.911 21.0927H322.614L319.366 21.2967V17.7676L318.192 16.5131L318.304 16.3091L322.603 16.6151V20.5929H326.681L328.775 18.9712L332.043 19.8789ZM324.769 10.5259L323.463 10.0568C324 10.5667 324.293 11.1889 324.293 11.8825C324.293 12.2497 324.202 12.6169 324.05 12.933L326.306 12.9738L327.541 12.9126V9.95477L325.851 10.016L324.769 10.5259V10.5259Z" fill="#FFFAEF"/>
<path d="M346.481 11.3317C346.481 13.8306 344.204 15.6461 340.805 15.6461C337.405 15.6461 335.129 13.8204 335.129 11.3317C335.129 8.84302 337.537 7.0071 340.805 7.0071C344.073 7.0071 346.481 8.87362 346.481 11.3317ZM343.01 11.3317C343.01 8.97561 342.312 7.41508 340.805 7.41508C339.297 7.41508 338.599 8.97561 338.599 11.3317C338.599 13.6878 339.317 15.2483 340.805 15.2483C342.292 15.2483 343.01 13.7898 343.01 11.3317ZM355.738 12.6475H351.62V15.2177C351.62 17.4514 350.679 20.8989 350.224 21.9086H349.101C348.878 20.8989 348.383 17.6554 348.383 15.8297V5.39557L346.511 2.95787L346.734 2.65189L351.731 3.96763L351.62 5.38537V12.2395H351.914L353.269 10.4137L356.082 10.9237L355.748 12.6475H355.738Z" fill="#FFFAEF"/>
<path d="M362.051 17.6758H371.622L374.101 16.1969L377.369 17.0435L377.146 18.2164H362.051L359.795 19.6341L356.193 18.2164L356.527 17.4004L362.041 17.6656L362.051 17.6758ZM373.403 13.9428H363.498L360.23 14.1264V7.51707L358.945 5.89534L359.057 5.69135L363.498 5.89534H368.769L370.53 4.90599L373.099 5.39557L372.968 6.40532H363.508V9.62838H368.87L370.337 8.78182L372.482 9.251L372.411 10.1486H363.518V13.4532H369.235L370.995 12.4231L373.565 12.9126L373.433 13.9632L373.403 13.9428Z" fill="#FFFAEF"/>
<path d="M399 12.6271L398.777 13.698H383.237L381.436 14.9118L377.834 13.596L378.168 12.882L383.237 13.1472H386.839V11.6683C384.765 11.3419 383.51 10.4138 383.51 9.3122C383.51 7.99646 385.422 6.81331 388.417 6.81331C391.412 6.81331 393.324 7.98626 393.324 9.3122C393.324 10.3832 392.11 11.3419 390.056 11.6683H390.076V13.1472H393.698L395.722 11.8723L398.99 12.6271H399ZM382.691 7.41508L379.878 6.09934L380.101 5.38537L384.947 5.58936H391.412L393.324 4.27362L396.248 5.08958L396.025 6.09934H384.947L382.691 7.41508ZM392.717 19.4812L395.762 20.2869L395.651 21.2967H382.944V19.0018L382.155 18.094L382.377 17.788L386.323 17.9512H391.027V15.7379H386.566L384.654 16.8089L381.841 15.6971L382.063 15.0851L386.566 15.2483H390.35L392.312 14.7792L394.741 15.2891L394.174 17.5432L394.397 18.1552V18.4408H386.313V20.8173H390.795L392.707 19.4812H392.717ZM391.432 4.04923C390.663 4.35521 387.314 4.88559 386.293 4.94679L383.996 3.16187L384.218 2.75388L386.94 3.05987L391.422 3.32506V4.04923H391.432ZM386.616 9.3224C386.616 10.2914 387.072 11.3929 388.417 11.3929C389.763 11.3929 390.218 10.3016 390.218 9.3224C390.218 8.42484 389.773 7.23149 388.417 7.23149C387.061 7.23149 386.616 8.42484 386.616 9.3224Z" fill="#FFFAEF"/>
<path d="M0 19.7769C2.51923 17.7166 8.20521 13.0758 8.20521 9.43459C8.20521 7.56807 6.64713 6.56851 5.2914 6.56851C4.00649 6.56851 2.45853 7.19069 1.17362 8.30244L0.849862 7.90465C1.98301 6.52771 4.15825 4.68159 7.01136 4.68159C9.53059 4.68159 11.7665 6.11973 11.7665 8.41463C11.7665 11.9437 6.61678 15.2687 3.90532 17.1353H12.7985L10.5322 19.7769H0Z" fill="#FFFAEF"/>
<path d="M13.8811 12.5659C13.8811 7.79246 16.9163 5.35477 20.6395 4.6918C24.8787 4.6918 27.8836 7.35388 27.8836 12.1273C27.8836 16.9007 24.8787 19.3384 21.1251 20.0013C16.9062 20.0013 13.8811 17.3392 13.8811 12.5659V12.5659ZM24.0592 12.5659C24.0592 9.01641 22.754 5.37517 20.6294 5.37517C19.0713 5.37517 17.6953 8.56763 17.6953 12.1273C17.6953 15.6869 19.0713 19.318 21.1251 19.318C22.754 19.318 24.0592 16.1255 24.0592 12.5761V12.5659Z" fill="#FFFAEF"/>
<path d="M29.2191 19.7769C31.7383 17.7166 37.4243 13.0758 37.4243 9.43459C37.4243 7.56807 35.8662 6.56851 34.5105 6.56851C33.2255 6.56851 31.6776 7.19069 30.3927 8.30244L30.0689 7.90465C31.2021 6.52771 33.3773 4.68159 36.2304 4.68159C38.7497 4.68159 40.9856 6.11973 40.9856 8.41463C40.9856 11.9437 35.8358 15.2687 33.1244 17.1353H41.9973L39.731 19.7769H29.1988H29.2191Z" fill="#FFFAEF"/>
<path d="M43.1001 19.7769C45.6194 17.7166 51.3053 13.0758 51.3053 9.43459C51.3053 7.56807 49.7473 6.56851 48.3915 6.56851C47.1066 6.56851 45.5587 7.19069 44.2737 8.30244L43.95 7.90465C45.0831 6.52771 47.2584 4.68159 50.1115 4.68159C52.6307 4.68159 54.8667 6.11973 54.8667 8.41463C54.8667 11.9437 49.7169 15.2687 47.0054 17.1353H55.8784L53.6121 19.7769H43.0799H43.1001Z" fill="#FFFAEF"/>
<path d="M57.133 18.5122C57.649 17.8492 58.6911 16.8905 59.4499 16.4519C60.1884 16.8905 61.271 17.8492 61.787 18.5122C61.271 19.1752 60.1884 20.1339 59.4499 20.5725C58.6809 20.1339 57.649 19.1752 57.133 18.5122Z" fill="#FFFAEF"/>
<path d="M68.6972 16.2071H69.1929L72.0055 19.6647C73.9987 19.6647 75.749 18.196 75.749 16.1765C75.749 13.5348 72.9869 12.6474 68.9906 12.5149L70.0529 4.90598H78.7033L78.1367 7.45587H70.4171L70.0731 9.81197C75.2735 9.92416 78.8247 11.4337 78.8247 14.8506C78.8247 18.2674 74.7372 20.2257 71.1051 20.2257C70.1439 20.2257 68.9804 20.0523 68.687 19.9605V16.2071H68.6972Z" fill="#FFFAEF"/>
<path d="M80.7976 18.5122C81.3136 17.8492 82.3557 16.8905 83.1145 16.4519C83.853 16.8905 84.9356 17.8492 85.4516 18.5122C84.9356 19.1752 83.853 20.1339 83.1145 20.5725C82.3455 20.1339 81.3136 19.1752 80.7976 18.5122Z" fill="#FFFAEF"/>
<path d="M101.245 19.5525V19.7769H92.6147V19.5525L95.2048 18.0838V7.39468L92.3719 5.90554V5.68115L98.412 4.68159H98.6548V18.0838L101.245 19.5525Z" fill="#FFFAEF"/>
<path d="M111.453 19.5525V19.7769H102.823V19.5525L105.413 18.0838V7.39468L102.58 5.90554V5.68115L108.62 4.68159H108.863V18.0838L111.453 19.5525Z" fill="#FFFAEF"/>
<path d="M159.521 16.2071H160.017L162.829 19.6647C164.823 19.6647 166.573 18.196 166.573 16.1765C166.573 13.5348 163.811 12.6474 159.814 12.5149L160.877 4.90598H169.527L168.961 7.45587H161.241L160.897 9.81197C166.097 9.92416 169.649 11.4337 169.649 14.8506C169.649 18.2674 165.561 20.2257 161.929 20.2257C160.968 20.2257 159.804 20.0523 159.511 19.9605V16.2071H159.521Z" fill="#FFFAEF"/>
<path d="M171.622 18.5122C172.137 17.8492 173.18 16.8905 173.938 16.4519C174.677 16.8905 175.76 17.8492 176.275 18.5122C175.76 19.1752 174.677 20.1339 173.938 20.5725C173.169 20.1339 172.137 19.1752 171.622 18.5122Z" fill="#FFFAEF"/>
<path d="M192.069 19.5525V19.7769H183.439V19.5525L186.029 18.0838V7.39468L183.196 5.90554V5.68115L189.236 4.68159H189.479V18.0838L192.069 19.5525Z" fill="#FFFAEF"/>
<path d="M202.672 15.8909V18.3082H202.692L204.786 19.5525V19.7769H197.37V19.5525L199.465 18.3082V15.8909H192.656V13.8714L199.879 4.90598H202.662V13.6776H205.474L204.979 15.9011H202.662L202.672 15.8909ZM199.465 13.6674V6.52771H199.414L193.597 13.6776H199.465V13.6674Z" fill="#FFFAEF"/>
<path d="M146.004 11.8009H126.174V12.6373H146.004V11.8009Z" fill="#FFFAEF"/>
<path d="M243.263 13.1982L252.298 11.6785C252.5 11.6479 252.5 11.3521 252.298 11.3113L243.263 9.79157C242.99 9.75078 242.777 9.53659 242.737 9.2612L241.229 0.152993C241.199 -0.0509978 240.905 -0.0509978 240.865 0.152993L239.358 9.2612C239.317 9.53659 239.105 9.75078 238.831 9.79157L229.797 11.3113C229.594 11.3419 229.594 11.6377 229.797 11.6785L238.831 13.1982C239.105 13.239 239.317 13.4532 239.358 13.7286L240.865 22.8368C240.895 23.0408 241.189 23.0408 241.229 22.8368L242.737 13.7286C242.777 13.4532 242.99 13.239 243.263 13.1982V13.1982Z" fill="#FFFAEF"/>
</svg>
