<svg width="399" height="23" viewBox="0 0 399 23" fill="none" xmlns="http://www.w3.org/2000/svg">
<g clip-path="url(#clip0_63_130)">
<path d="M282.356 13.367C282.356 14.1139 282.02 15.1915 281.684 15.7965L283.84 15.7587L285.184 15.3522L287.2 15.7587L286.957 18.5002C286.827 19.8804 286.192 21.1755 285.725 21.9318H284.605C284.335 21.185 284.064 19.8804 283.98 18.5002L283.849 16.2692L278.604 16.3732L276.7 17.7912L273.675 16.2692L273.899 15.6642L278.613 15.8627L279.686 15.8438C279.481 15.2766 279.145 14.1422 279.145 13.3859V12.7148H275.888L273.871 14.0288L270.278 12.6486L270.614 11.9018L275.888 12.1665H286.099L288.115 10.8903L291.363 11.6371L291.139 12.7148H282.365V13.367H282.356ZM274.973 5.15208L273.965 3.93259L274.077 3.73407L278.23 4.44307L278.118 5.25606V6.19194H283.392V4.54706L282.384 3.32758L282.496 3.12906L286.649 3.83806L286.537 4.65105V10.2474H278.128L275.216 11.0604H274.992V5.15208H274.973ZM278.109 6.69297V9.73695H283.383V6.69297H278.109Z" fill="#FFFBEF"/>
<path d="M303.656 11.3346C303.656 13.8302 301.387 15.6547 297.999 15.6547C294.611 15.6547 292.343 13.8302 292.343 11.3346C292.343 8.83888 294.742 7.01439 297.999 7.01439C301.257 7.01439 303.656 8.8767 303.656 11.3346ZM300.202 11.3346C300.202 8.98068 299.502 7.42088 297.999 7.42088C296.497 7.42088 295.796 8.98068 295.796 11.3346C295.796 13.6884 296.515 15.2483 297.999 15.2483C299.483 15.2483 300.202 13.7924 300.202 11.3346ZM312.877 12.6486H308.77V15.2199C308.77 17.4509 307.828 20.9014 307.38 21.9129H306.26C306.036 20.9014 305.541 17.6494 305.541 15.8249V5.38841L303.674 2.9589L303.898 2.65639L308.873 3.97041L308.761 5.38841V12.2421H309.05L310.395 10.4176L313.195 10.9281L312.859 12.6486H312.877Z" fill="#FFFBEF"/>
<path d="M317.694 7.74229L315.341 8.96177L313.101 7.54377L313.325 7.03329L317.703 7.31689H322.118L323.686 6.11632L326.15 6.9293L326.038 7.74229H317.694ZM324.069 13.4427C323.284 14.4164 321.8 15.0214 320.027 15.0214C317.451 15.0214 315.425 13.679 315.425 11.8734C315.425 10.0678 317.442 8.72544 320.027 8.72544C321.352 8.72544 322.491 9.06576 323.322 9.64242L323.368 9.4439L326.169 9.50062L327.849 9.4439V5.18989L325.982 2.9589L326.206 2.65639L331.19 3.77189L331.078 5.18989V12.3272C331.078 13.972 330.229 16.4866 329.781 17.2807H328.614C328.437 16.6284 328.035 14.8512 327.895 13.4238L326.617 13.4805L325.543 13.991L324.059 13.4427H324.069ZM322.547 5.4924C321.763 5.75709 319.206 6.0785 318.198 6.14468L316.135 4.42417L316.359 4.01767L318.851 4.30127L322.556 4.58487V5.50185L322.547 5.4924ZM320.036 14.6621C321.044 14.6621 321.604 13.5277 321.604 11.8829C321.604 10.342 321.044 9.10358 320.036 9.10358C319.028 9.10358 318.468 10.342 318.468 11.8829C318.468 13.5277 319.028 14.6621 320.036 14.6621ZM332.348 19.8709L332.217 21.0904H322.958L319.728 21.2889V17.7628L318.562 16.5055L318.674 16.307L322.958 16.6095V20.5894H327.018L329.099 18.9634L332.357 19.8804L332.348 19.8709ZM325.105 10.5216L323.807 10.0584C324.349 10.5688 324.638 11.1928 324.638 11.8829C324.638 12.2515 324.545 12.6108 324.395 12.9416L326.635 12.9794L327.867 12.9227V9.96383L326.187 10.0206L325.114 10.531L325.105 10.5216Z" fill="#FFFBEF"/>
<path d="M346.712 11.3346C346.712 13.8302 344.444 15.6547 341.056 15.6547C337.668 15.6547 335.4 13.8302 335.4 11.3346C335.4 8.83888 337.798 7.01439 341.056 7.01439C344.313 7.01439 346.712 8.8767 346.712 11.3346ZM343.259 11.3346C343.259 8.98068 342.559 7.42088 341.056 7.42088C339.553 7.42088 338.853 8.98068 338.853 11.3346C338.853 13.6884 339.572 15.2483 341.056 15.2483C342.54 15.2483 343.259 13.7924 343.259 11.3346ZM355.934 12.6486H351.827V15.2199C351.827 17.4509 350.884 20.9014 350.436 21.9129H349.316C349.092 20.9014 348.598 17.6494 348.598 15.8249V5.38841L346.731 2.9589L346.955 2.65639L351.93 3.97041L351.818 5.38841V12.2421H352.107L353.451 10.4176L356.251 10.9281L355.915 12.6486H355.934Z" fill="#FFFBEF"/>
<path d="M362.216 17.6778H371.745L374.21 16.1936L377.458 17.0444L377.234 18.2166H362.206L359.966 19.6346L356.373 18.2166L356.709 17.4036L362.206 17.6683L362.216 17.6778ZM373.519 13.9437H363.653L360.396 14.1233V7.52487L359.117 5.89889L359.229 5.70037L363.653 5.89889H368.899L370.653 4.90629L373.211 5.38841L373.08 6.39992H363.662V9.62351H369.001L370.457 8.77271L372.585 9.23592L372.52 10.1245H363.662V13.4332H369.356L371.111 12.4028L373.668 12.8944L373.537 13.9531L373.519 13.9437Z" fill="#FFFBEF"/>
<path d="M399 12.6297L398.776 13.7074H383.301L381.508 14.9268L377.915 13.6128L378.251 12.9038L383.301 13.1685H386.894V11.6843C384.831 11.3629 383.571 10.427 383.571 9.33045C383.571 8.01644 385.475 6.83477 388.462 6.83477C391.449 6.83477 393.353 8.00699 393.353 9.33045C393.353 10.4081 392.14 11.3629 390.105 11.6843H390.124V13.1685H393.736L395.752 11.8923L399 12.6391V12.6297ZM382.759 7.42088L379.959 6.10686L380.183 5.39786L385.009 5.59638H391.449L393.353 4.28237L396.265 5.09535L396.041 6.10686H385.009L382.769 7.42088H382.759ZM392.737 19.4834L395.761 20.2963L395.649 21.3078H383.002V19.0201L382.218 18.1126L382.442 17.8101L386.371 17.9708H391.057V15.7587H386.614L384.71 16.8364L381.91 15.7209L382.134 15.1159L386.623 15.2766H390.394L392.345 14.8134L394.772 15.3239L394.212 17.5738L394.436 18.1788V18.4624H386.381V20.8352H390.842L392.746 19.4928L392.737 19.4834ZM391.458 4.04603C390.693 4.34854 387.351 4.87793 386.343 4.93465L384.057 3.14796L384.281 2.74147L386.997 3.04398L391.458 3.30867V4.03658V4.04603ZM386.661 9.321C386.661 10.2947 387.109 11.3913 388.453 11.3913C389.797 11.3913 390.245 10.2947 390.245 9.321C390.245 8.43239 389.797 7.23181 388.453 7.23181C387.109 7.23181 386.661 8.43239 386.661 9.321Z" fill="#FFFBEF"/>
<path d="M0 19.7764C2.50145 17.7156 8.16705 13.074 8.16705 9.43444C8.16705 7.57213 6.61764 6.57008 5.27358 6.57008C3.99485 6.57008 2.45478 7.194 1.17605 8.30004L0.858707 7.903C1.98809 6.52281 4.14419 4.67941 6.99099 4.67941C9.49244 4.67941 11.7232 6.12577 11.7232 8.41348C11.7232 11.9396 6.58964 15.2766 3.89218 17.1389H12.7313L10.4725 19.7764H0Z" fill="#FFFBEF"/>
<path d="M13.814 12.5635C13.814 7.78956 16.8288 5.35059 20.5343 4.67941C24.7532 4.67941 27.7493 7.34525 27.7493 12.1192C27.7493 16.8931 24.7532 19.3321 21.029 20.0033C16.8288 20.0033 13.814 17.3374 13.814 12.5635ZM23.9505 12.5635C23.9505 9.00904 22.6531 5.3695 20.5343 5.3695C18.9849 5.3695 17.6128 8.56473 17.6128 12.1192C17.6128 15.6737 18.9849 19.3132 21.0196 19.3132C22.6437 19.3132 23.9411 16.118 23.9411 12.5635H23.9505Z" fill="#FFFBEF"/>
<path d="M29.084 19.7764C31.5855 17.7156 37.2511 13.074 37.2511 9.43444C37.2511 7.57213 35.7017 6.57008 34.3576 6.57008C33.0789 6.57008 31.5388 7.194 30.2601 8.30004L29.9427 7.903C31.0721 6.52281 33.2282 4.67941 36.075 4.67941C38.5765 4.67941 40.8072 6.12577 40.8072 8.41348C40.8072 11.9396 35.6737 15.2766 32.9762 17.1389H41.8059L39.5472 19.7764H29.0654H29.084Z" fill="#FFFBEF"/>
<path d="M42.898 19.7764C45.3995 17.7156 51.0651 13.074 51.0651 9.43444C51.0651 7.57213 49.5156 6.57008 48.1716 6.57008C46.8929 6.57008 45.3528 7.194 44.0741 8.30004L43.7567 7.903C44.8861 6.52281 47.0422 4.67941 49.889 4.67941C52.3904 4.67941 54.6212 6.12577 54.6212 8.41348C54.6212 11.9396 49.4876 15.2766 46.7902 17.1389H55.6199L53.3612 19.7764H42.8793H42.898Z" fill="#FFFBEF"/>
<path d="M56.8707 18.5097C57.384 17.8479 58.4201 16.8931 59.1761 16.4488C59.9135 16.8931 60.9962 17.8479 61.5096 18.5097C60.9962 19.1808 59.9135 20.1262 59.1761 20.5705C58.4107 20.1262 57.384 19.1714 56.8707 18.5097Z" fill="#FFFBEF"/>
<path d="M68.3792 16.203H68.8739L71.674 19.663C73.6621 19.663 75.4075 18.1977 75.4075 16.1747C75.4075 13.5372 72.6634 12.6486 68.6872 12.5162L69.7419 4.90629H78.357L77.7876 7.45869H70.1059L69.7606 9.81258C74.9408 9.92602 78.469 11.4291 78.469 14.8512C78.469 18.2733 74.3995 20.2207 70.7873 20.2207C69.8259 20.2207 68.6779 20.0411 68.3792 19.956V16.203Z" fill="#FFFBEF"/>
<path d="M80.4291 18.5097C80.9424 17.8479 81.9785 16.8931 82.7345 16.4488C83.4719 16.8931 84.5546 17.8479 85.068 18.5097C84.5546 19.1808 83.4719 20.1262 82.7345 20.5705C81.9785 20.1262 80.9424 19.1714 80.4291 18.5097Z" fill="#FFFBEF"/>
<path d="M100.777 19.559V19.7764H92.1896V19.559L94.7658 18.0937V7.39252L91.947 5.90834V5.68146L97.9579 4.67941H98.2006V18.0843L100.777 19.5495V19.559Z" fill="#FFFBEF"/>
<path d="M101.607 19.7764C104.109 17.7156 109.774 13.074 109.774 9.43444C109.774 7.57213 108.225 6.57008 106.881 6.57008C105.602 6.57008 104.062 7.194 102.783 8.30004L102.466 7.903C103.596 6.52281 105.752 4.67941 108.598 4.67941C111.1 4.67941 113.331 6.12577 113.331 8.41348C113.331 11.9396 108.197 15.2766 105.5 17.1389H114.329L112.071 19.7764H101.589H101.607Z" fill="#FFFBEF"/>
<path d="M160.97 16.203H161.465L164.265 19.663C166.253 19.663 167.999 18.1977 167.999 16.1747C167.999 13.5372 165.254 12.6486 161.278 12.5162L162.333 4.90629H170.948L170.379 7.45869H162.697L162.352 9.81258C167.532 9.92602 171.06 11.4291 171.06 14.8512C171.06 18.2733 166.99 20.2207 163.378 20.2207C162.417 20.2207 161.269 20.0411 160.97 19.956V16.203Z" fill="#FFFBEF"/>
<path d="M173.02 18.5097C173.533 17.8479 174.569 16.8931 175.326 16.4488C176.063 16.8931 177.146 17.8479 177.659 18.5097C177.146 19.1808 176.063 20.1262 175.326 20.5705C174.569 20.1262 173.533 19.1714 173.02 18.5097Z" fill="#FFFBEF"/>
<path d="M193.368 19.559V19.7764H184.781V19.559L187.357 18.0937V7.39252L184.538 5.90834V5.68146L190.549 4.67941H190.792V18.0843L193.368 19.5495V19.559Z" fill="#FFFBEF"/>
<path d="M194.693 16.203H195.188L197.988 19.663C199.976 19.663 201.721 18.1977 201.721 16.1747C201.721 13.5372 198.977 12.6486 195.001 12.5162L196.056 4.90629H204.671L204.102 7.45869H196.42L196.075 9.81258C201.255 9.92602 204.783 11.4291 204.783 14.8512C204.783 18.2733 200.713 20.2207 197.101 20.2207C196.14 20.2207 194.992 20.0411 194.693 19.956V16.203Z" fill="#FFFBEF"/>
<path d="M147.166 11.7978H127.425V12.6391H147.166V11.7978Z" fill="#FFFBEF"/>
<path d="M243.966 13.2063L252.964 11.6843C253.169 11.6465 253.169 11.3535 252.964 11.3251L243.966 9.80312C243.695 9.75586 243.481 9.54788 243.443 9.27374L241.941 0.160707C241.903 -0.047267 241.614 -0.047267 241.586 0.160707L240.083 9.27374C240.037 9.54788 239.831 9.76531 239.561 9.80312L230.563 11.3251C230.357 11.3629 230.357 11.656 230.563 11.6843L239.561 13.2063C239.831 13.2536 240.046 13.4616 240.083 13.7357L241.586 22.8487C241.623 23.0567 241.913 23.0567 241.941 22.8487L243.443 13.7357C243.49 13.4616 243.695 13.2441 243.966 13.2063Z" fill="#FFFBEF"/>
</g>
<defs>
<clipPath id="clip0_63_130">
<rect width="399" height="23" fill="white"/>
</clipPath>
</defs>
</svg>
