<svg width="85" height="20" viewBox="0 0 85 20" fill="none" xmlns="http://www.w3.org/2000/svg">
<g clip-path="url(#clip0_63_87)">
<path d="M50.4947 0H49.6414V19.6393H50.4947V0Z" fill="#FFFBEF"/>
<path d="M45.8083 8.71498C46.676 8.71498 47.3794 8.04593 47.3794 7.22062C47.3794 6.39531 46.676 5.72626 45.8083 5.72626C44.9405 5.72626 44.2371 6.39531 44.2371 7.22062C44.2371 8.04593 44.9405 8.71498 45.8083 8.71498Z" fill="#FFFBEF"/>
<path d="M45.8083 13.913C46.676 13.913 47.3794 13.244 47.3794 12.4187C47.3794 11.5934 46.676 10.9243 45.8083 10.9243C44.9405 10.9243 44.2371 11.5934 44.2371 12.4187C44.2371 13.244 44.9405 13.913 45.8083 13.913Z" fill="#FFFBEF"/>
<path d="M0 11.6457C0 7.58131 2.499 5.61674 5.81746 5.61674C6.90535 5.56693 7.98336 5.8337 8.90777 6.38148C9.83219 6.92926 10.5591 7.73203 10.9916 8.68276C11.4188 7.72704 12.1455 6.91986 13.0727 6.3712C13.9998 5.82254 15.0822 5.55909 16.1724 5.61674C19.4841 5.61674 21.9899 7.5491 21.9899 11.6457V19.6393H20.0394V11.6457C20.0394 8.74073 18.3531 7.3301 16.0234 7.3301C13.6937 7.3301 11.96 8.7987 11.96 11.6457V19.6393H10.0366V11.6457C10.0366 8.7987 8.28938 7.3301 5.97323 7.3301C3.65708 7.3301 1.96399 8.74073 1.96399 11.6457V19.6393H0V11.6457Z" fill="#FFFBEF"/>
<path d="M24.9359 12.8825C24.9359 8.62481 28.1392 5.61032 32.6767 5.61032C37.2142 5.61032 40.3837 8.57328 40.3837 12.8825V19.6393H38.6025V16.2641C37.5799 18.6989 35.2164 20 32.4058 20C31.4143 20.0334 30.4261 19.8721 29.503 19.526C28.5799 19.18 27.7417 18.6567 27.0408 17.9888C26.3398 17.3209 25.7912 16.5228 25.429 15.6442C25.0668 14.7656 24.899 13.8255 24.9359 12.8825ZM38.4332 12.7987C38.4658 12.0715 38.3392 11.3457 38.0615 10.6674C37.7837 9.98912 37.3608 9.3731 36.8196 8.85838C36.2785 8.34366 35.6308 7.94147 34.9176 7.67729C34.2045 7.41311 33.4414 7.2927 32.6767 7.32369C31.9118 7.29276 31.1484 7.41317 30.4349 7.67728C29.7214 7.9414 29.0733 8.34349 28.5316 8.8581C27.9899 9.37271 27.5664 9.98865 27.2879 10.6669C27.0093 11.3452 26.8818 12.0711 26.9134 12.7987C26.8809 13.5268 27.0076 14.2534 27.2857 14.9325C27.5638 15.6116 27.9872 16.2283 28.529 16.7436C29.0708 17.2589 29.7193 17.6616 30.4332 17.9261C31.1472 18.1906 31.9112 18.3112 32.6767 18.2802C33.4411 18.3102 34.2037 18.1891 34.9164 17.9246C35.6291 17.6601 36.2764 17.2579 36.8174 16.7433C37.3583 16.2288 37.7812 15.6132 38.0594 14.9354C38.3375 14.2575 38.4648 13.5322 38.4332 12.8052V12.7987Z" fill="#FFFBEF"/>
<path d="M52.4385 0H54.3889V8.63124C55.4048 6.66667 57.3281 5.61675 59.8068 5.61675C63.6467 5.61675 66.5792 7.82609 66.5792 12.5024V19.6393H64.6829V12.5024C64.6829 9.12721 62.6512 7.34944 59.5359 7.34944C56.4206 7.34944 54.3889 9.20451 54.3889 12.5024V19.6393H52.4385V0Z" fill="#FFFBEF"/>
<path d="M69.5862 12.8052C69.5862 8.65702 72.7827 5.61676 77.3202 5.61676C81.8577 5.61676 85.0001 8.65702 85.0001 12.8052V13.4171H71.5908C71.6799 14.7825 72.3314 16.0595 73.4039 16.9711C74.4765 17.8827 75.8836 18.3554 77.3202 18.2866C79.589 18.2866 81.3362 17.3978 82.2641 15.8197H84.3838C83.2799 18.3382 80.6658 20 77.3202 20C72.7827 20 69.5862 16.9598 69.5862 12.8052ZM82.9616 11.7552C82.7722 10.4808 82.0882 9.31991 81.0442 8.50098C80.0002 7.68204 78.6717 7.26437 77.3202 7.33013C74.3268 7.33013 72.0852 9.0757 71.645 11.7552H82.9616Z" fill="#FFFBEF"/>
</g>
<defs>
<clipPath id="clip0_63_87">
<rect width="85" height="20" fill="white"/>
</clipPath>
</defs>
</svg>
