<svg width="85" height="20" viewBox="0 0 85 20" fill="none" xmlns="http://www.w3.org/2000/svg">
<g clip-path="url(#clip0_103_419)">
<path d="M50.4947 0H49.6414V19.6393H50.4947V0Z" fill="#193052"/>
<path d="M45.8083 8.71498C46.676 8.71498 47.3794 8.04593 47.3794 7.22061C47.3794 6.3953 46.676 5.72625 45.8083 5.72625C44.9405 5.72625 44.2371 6.3953 44.2371 7.22061C44.2371 8.04593 44.9405 8.71498 45.8083 8.71498Z" fill="#193052"/>
<path d="M45.8083 13.913C46.676 13.913 47.3794 13.244 47.3794 12.4187C47.3794 11.5934 46.676 10.9243 45.8083 10.9243C44.9405 10.9243 44.2371 11.5934 44.2371 12.4187C44.2371 13.244 44.9405 13.913 45.8083 13.913Z" fill="#193052"/>
<path d="M0 11.6457C0 7.58132 2.499 5.61675 5.81746 5.61675C6.90535 5.56695 7.98336 5.83372 8.90777 6.3815C9.83219 6.92928 10.5591 7.73204 10.9916 8.68277C11.4188 7.72706 12.1455 6.91988 13.0727 6.37122C13.9998 5.82256 15.0822 5.5591 16.1724 5.61675C19.4841 5.61675 21.9899 7.54912 21.9899 11.6457V19.6393H20.0394V11.6457C20.0394 8.74074 18.3531 7.33012 16.0234 7.33012C13.6937 7.33012 11.96 8.79872 11.96 11.6457V19.6393H10.0366V11.6457C10.0366 8.79872 8.28938 7.33012 5.97323 7.33012C3.65708 7.33012 1.96399 8.74074 1.96399 11.6457V19.6393H0V11.6457Z" fill="#193052"/>
<path d="M24.9359 12.8824C24.9359 8.6248 28.1392 5.61031 32.6767 5.61031C37.2142 5.61031 40.3837 8.57327 40.3837 12.8824V19.6393H38.6025V16.2641C37.5799 18.6989 35.2164 20 32.4058 20C31.4143 20.0334 30.4261 19.8721 29.503 19.526C28.5799 19.18 27.7417 18.6567 27.0408 17.9888C26.3398 17.3209 25.7912 16.5228 25.429 15.6442C25.0668 14.7656 24.899 13.8255 24.9359 12.8824ZM38.4332 12.7987C38.4658 12.0715 38.3392 11.3457 38.0615 10.6674C37.7837 9.9891 37.3608 9.37308 36.8196 8.85836C36.2785 8.34365 35.6308 7.94145 34.9176 7.67727C34.2045 7.41309 33.4414 7.29268 32.6767 7.32367C31.9118 7.29275 31.1484 7.41315 30.4349 7.67727C29.7214 7.94139 29.0733 8.34347 28.5316 8.85808C27.9899 9.37269 27.5664 9.98863 27.2879 10.6669C27.0093 11.3452 26.8818 12.0711 26.9134 12.7987C26.8809 13.5268 27.0076 14.2534 27.2857 14.9325C27.5638 15.6116 27.9872 16.2283 28.529 16.7436C29.0708 17.2589 29.7193 17.6616 30.4332 17.9261C31.1472 18.1906 31.9112 18.3112 32.6767 18.2802C33.4411 18.3102 34.2037 18.1891 34.9164 17.9246C35.6291 17.6601 36.2764 17.2578 36.8174 16.7433C37.3583 16.2288 37.7812 15.6132 38.0594 14.9353C38.3375 14.2575 38.4648 13.5322 38.4332 12.8052V12.7987Z" fill="#193052"/>
<path d="M52.4385 0H54.3889V8.63124C55.4048 6.66667 57.3281 5.61675 59.8068 5.61675C63.6467 5.61675 66.5792 7.82609 66.5792 12.5024V19.6393H64.6829V12.5024C64.6829 9.12721 62.6512 7.34944 59.5359 7.34944C56.4206 7.34944 54.3889 9.20451 54.3889 12.5024V19.6393H52.4385V0Z" fill="#193052"/>
<path d="M69.5862 12.8052C69.5862 8.657 72.7827 5.61674 77.3202 5.61674C81.8577 5.61674 85.0001 8.657 85.0001 12.8052V13.4171H71.5908C71.6799 14.7825 72.3314 16.0595 73.4039 16.9711C74.4765 17.8827 75.8836 18.3554 77.3202 18.2866C79.589 18.2866 81.3362 17.3977 82.2641 15.8196H84.3838C83.2799 18.3382 80.6658 20 77.3202 20C72.7827 20 69.5862 16.9597 69.5862 12.8052ZM82.9616 11.7552C82.7722 10.4808 82.0882 9.3199 81.0442 8.50096C80.0002 7.68203 78.6717 7.26435 77.3202 7.33011C74.3268 7.33011 72.0852 9.07568 71.645 11.7552H82.9616Z" fill="#193052"/>
</g>
<defs>
<clipPath id="clip0_103_419">
<rect width="85" height="20" fill="white"/>
</clipPath>
</defs>
</svg>
