<svg width="342" height="14" viewBox="0 0 342 14" fill="none" xmlns="http://www.w3.org/2000/svg">
<path d="M17.8647 13.8732H15.4839V4.70103C15.4839 3.83693 15.4839 3.73387 15.5566 2.51303L15.5839 1.79163H15.5112L15.2749 2.43375C14.8024 3.64666 14.657 3.97962 14.4753 4.36807L10.1045 13.8732H7.83282L3.39846 4.47113C3.18947 3.99548 3.06225 3.71009 2.59883 2.53681L2.33531 1.87883H2.28987L2.31713 2.57645C2.38983 3.73387 2.38983 3.93998 2.38983 4.70103V13.8732H0V0.126846H3.98911L7.48753 7.71348C7.79648 8.39525 7.91461 8.72028 8.55068 10.2265L8.87781 11.0748H8.9505L9.28671 10.2265C9.87736 8.74406 10.0409 8.34768 10.3226 7.71348L13.7938 0.126846H17.8556V13.8732H17.8647Z" fill="#F2CB03"/>
<path d="M74.7208 0.126846V9.5051C74.7208 11.1778 74.5118 11.9785 73.9211 12.6603C72.9761 13.7146 71.7676 14 68.251 14C66.0338 14 65.0615 13.8969 64.2073 13.6116C62.4627 12.9932 61.9175 12.0419 61.9175 9.59231V0.126846H64.3255V9.58438C64.3255 10.5357 64.4254 11.051 64.6344 11.3601C65.0342 11.9785 65.9338 12.1846 68.2055 12.1846C71.8675 12.1846 72.3128 11.8992 72.3128 9.52888V0.126846H74.7208Z" fill="#F2CB03"/>
<path d="M127.542 3.99548C127.542 3.06796 127.47 2.735 127.233 2.40997C126.852 1.89468 126.17 1.72821 124.28 1.72821C121.018 1.72821 120.4 2.06116 120.4 3.86864C120.4 4.96263 120.709 5.49378 121.491 5.72368C121.936 5.86637 122.154 5.89015 124.607 5.99321C127.397 6.12005 128.269 6.26275 129.024 6.7384C129.896 7.31711 130.223 8.15742 130.223 9.80635C130.223 11.8041 129.823 12.7712 128.778 13.3499C127.86 13.8415 126.725 13.9921 123.699 13.9921C121.218 13.9921 120.346 13.8652 119.373 13.3737C118.783 13.0646 118.265 12.4066 118.101 11.701C117.956 11.0827 117.938 10.6942 117.91 9.5606H120.273C120.273 10.7973 120.346 11.1065 120.627 11.5425C121.027 12.1608 121.454 12.2401 124.098 12.2401C127.433 12.2401 127.833 11.9706 127.833 9.79049C127.833 8.75992 127.57 8.28426 126.915 8.06229C126.631 7.96716 125.577 7.87203 123.753 7.7769C120.891 7.65006 120.564 7.59457 119.764 7.26161C118.51 6.72254 117.992 5.75539 117.992 3.93998C117.992 2.35448 118.374 1.33976 119.201 0.808614C120.146 0.190268 121.327 0.00793457 124.135 0.00793457C127.252 0.00793457 128.478 0.293325 129.242 1.22085C129.687 1.79955 129.905 2.53681 129.905 3.59117V4.0034H127.542V3.99548Z" fill="#F2CB03"/>
<path d="M175.975 13.8732H173.567V0.126846H175.975V13.8732Z" fill="#F2CB03"/>
<path d="M232.577 9.13251V9.60816C232.577 11.5425 232.368 12.2877 231.659 12.9456C231.214 13.3817 230.36 13.7305 229.46 13.8494C228.897 13.9524 227.615 13.9921 226.034 13.9921C223.672 13.9921 222.745 13.8652 221.809 13.4372C220.482 12.8426 219.873 11.8279 219.71 9.95697C219.619 9.13251 219.564 7.52322 219.564 6.16762C219.564 2.94904 219.801 2.06909 220.891 1.18121C222.027 0.229905 223.181 0.00793457 227.034 0.00793457C229.206 0.00793457 229.96 0.110992 230.787 0.547006C231.659 0.98302 232.204 1.86297 232.322 2.98075C232.368 3.41677 232.395 3.66252 232.413 4.52662H230.005C229.96 2.07702 229.651 1.82334 226.788 1.82334C222.563 1.82334 222.091 2.15629 222.091 5.04191C222.091 9.39412 222.163 10.3375 222.49 11.0589C222.917 11.9626 223.626 12.1925 226.08 12.1925C229.696 12.1925 230.187 11.9071 230.187 9.79842C230.187 9.61609 230.187 9.44961 230.16 9.14044H232.568L232.577 9.13251Z" fill="#F2CB03"/>
<path d="M278.211 11.1065L277.12 13.8652H274.567L280.083 0.126846H283.599L289.178 13.8732H286.67L285.562 11.1144H278.211V11.1065ZM281.873 1.76784L278.829 9.49717H284.971L281.873 1.76784Z" fill="#F2CB03"/>
<path d="M334.276 11.9785H342V13.8732H331.868V0.126846H334.276V11.9785Z" fill="#F2CB03"/>
</svg>
