<svg width="259" height="15" viewBox="0 0 259 15" fill="none" xmlns="http://www.w3.org/2000/svg">
<path d="M10.2171 0.183999V2.376H6.63306C5.97706 1.56 4.95306 1.08 3.76906 1.08C1.70506 1.08 0.169063 2.52 0.169063 4.568C0.169063 6.632 1.70506 8.072 3.76906 8.072C4.96906 8.072 6.00906 7.576 6.64906 6.744H10.2171V10.536H11.4491V0.183999H10.2171ZM1.32106 4.568C1.32106 3.176 2.34506 2.152 3.76906 2.152C5.12906 2.152 6.18506 3.176 6.18506 4.568C6.18506 5.976 5.12906 7 3.76906 7C2.34506 7 1.32106 5.976 1.32106 4.568ZM2.52106 13.864H11.8331V12.856H3.75306V9.464H2.52106V13.864ZM7.19306 3.4H10.2171V5.736H7.19306C7.30506 5.384 7.36906 4.984 7.36906 4.568C7.36906 4.152 7.30506 3.752 7.19306 3.4ZM19.4334 5.224V6.216H21.8014V13.464H22.9374V0.487999H21.8014V5.224H19.4334ZM13.7694 10.232L14.5534 11.144C15.9454 10.296 16.9694 8.696 17.4814 6.84C17.9774 8.536 18.9374 10.04 20.2814 10.84L20.9694 9.896C19.1454 8.792 18.0574 6.376 18.0574 4.152V1.496H16.8734V4.2C16.8734 6.616 15.6894 9.096 13.7694 10.232ZM24.6494 14.184H25.8334V0.151999H24.6494V14.184ZM38.6178 0.151999V5.8H36.5698V0.487999H35.4338V13.448H36.5698V6.824H38.6178V14.184H39.7858V0.151999H38.6178ZM28.4258 10.696H29.3378C31.4498 10.696 32.8578 10.632 34.5378 10.28L34.4098 9.256C32.8738 9.608 31.5298 9.672 29.6258 9.672V2.872H33.6258V1.896H28.4258V10.696ZM41.9302 1.672V2.664H50.2022V1.672H46.6662V0.0879993H45.4342V1.672H41.9302ZM42.6982 5.944C42.6982 7.464 44.0582 8.44 46.0582 8.44C48.0422 8.44 49.4022 7.464 49.4022 5.944C49.4022 4.408 48.0422 3.416 46.0582 3.416C44.0582 3.416 42.6982 4.408 42.6982 5.944ZM43.6582 10.696H51.5142V14.2H52.7302V9.704H43.6582V10.696ZM43.8662 5.944C43.8662 4.984 44.7462 4.376 46.0582 4.376C47.3542 4.376 48.2342 4.984 48.2342 5.944C48.2342 6.888 47.3542 7.496 46.0582 7.496C44.7462 7.496 43.8662 6.888 43.8662 5.944ZM51.5142 8.92H52.7302V5.08H54.8102V4.056H52.7302V0.183999H51.5142V8.92ZM57.1786 1.608V2.6H65.8026V3.16C65.8026 4.92 65.8026 6.744 65.3226 9.208L66.5226 9.368C67.0026 6.76 67.0026 4.952 67.0026 3.16V1.608H57.1786ZM55.8666 12.184H68.5226V11.192H63.6746V6.536H62.4746V11.192H60.2186V6.536H59.0186V11.192H55.8666V12.184ZM73.5384 8.28V9.304H76.7864V14.264H78.0024V9.304H81.7784V14.264H82.9784V9.304H86.2264V8.28H73.5384ZM75.1544 6.376H84.5784V0.936H75.1544V6.376ZM76.3384 5.416V1.912H83.3944V5.416H76.3384ZM88.0028 1.608V2.632H91.2828V4.488C91.2828 6.92 89.5388 9.56 87.5548 10.52L88.2588 11.496C89.8588 10.68 91.2668 8.872 91.9068 6.824C92.5628 8.76 93.9548 10.392 95.5708 11.144L96.2748 10.184C94.2428 9.288 92.5148 6.872 92.5148 4.488V2.632H95.8268V1.608H88.0028ZM97.7628 14.2H98.9788V0.167999H97.7628V14.2ZM108.739 3.576V4.552H111.795V7.416H113.011V0.167999H111.795V3.576H108.739ZM101.875 3.496L102.067 4.472L106.611 4.136C105.763 5.368 104.243 6.328 101.907 6.936L102.371 7.896C106.675 6.744 108.691 4.36 108.691 0.855999H102.547V1.848H107.395C107.347 2.344 107.251 2.808 107.075 3.256L101.875 3.496ZM104.019 9.048H111.811V10.488H104.067V13.976H113.491V13H105.235V11.416H113.011V8.072H104.019V9.048ZM119.179 11.336V12.36H131.867V11.336H126.059V7.912H124.859V11.336H119.179ZM119.707 7.048L120.219 8.072C122.331 7.608 124.555 6.152 125.467 4.152C126.379 6.152 128.603 7.608 130.715 8.072L131.259 7.048C128.843 6.616 126.091 4.584 126.091 2.216V1.112H124.827V2.216C124.827 4.568 122.091 6.616 119.707 7.048ZM133.163 11.368V12.392H145.851V11.368H140.075V7.928H144.299V1.352H134.667V7.928H138.875V11.368H133.163ZM135.851 6.936V2.328H143.115V6.936H135.851ZM157.388 0.183999V8.2H158.62V0.183999H157.388ZM147.484 4.184C147.484 6.104 149.02 7.448 151.116 7.448C153.228 7.448 154.764 6.104 154.764 4.184C154.764 2.264 153.228 0.919999 151.116 0.919999C149.02 0.919999 147.484 2.264 147.484 4.184ZM148.684 4.184C148.684 2.872 149.724 1.944 151.116 1.944C152.556 1.944 153.58 2.872 153.58 4.184C153.58 5.512 152.556 6.44 151.116 6.44C149.724 6.44 148.684 5.512 148.684 4.184ZM149.596 13.976H158.62V8.952H149.596V13.976ZM150.796 13V9.928H157.436V13H150.796ZM175.94 8.008V13H177.108V7.88C177.108 6.2 175.62 4.856 174.068 4.856C172.948 4.856 171.972 5.656 171.38 6.488C170.804 5.368 170.02 4.856 168.836 4.856C167.86 4.856 167.124 5.224 166.612 6.104V4.856H165.444V13H166.612V7.976C166.612 6.984 167.492 6.088 168.788 6.088C170.036 6.088 170.692 6.984 170.692 8.008V13H171.844V8.008C171.844 6.84 172.948 6.072 174.02 6.072C175.012 6.072 175.94 6.984 175.94 8.008ZM182.65 11.96C181.194 11.96 179.93 10.68 179.93 9C179.93 7.32 181.194 6.04 182.65 6.04C184.09 6.04 185.354 7.304 185.37 9C185.354 10.696 184.09 11.96 182.65 11.96ZM178.762 9C178.762 11.208 180.474 13.112 182.634 13.112C183.594 13.112 184.602 12.648 185.37 11.4V13H186.522V4.856H185.37V6.584C184.634 5.4 183.578 4.904 182.634 4.904C180.474 4.904 178.762 6.776 178.762 9ZM189.327 4.36V5.592H190.607V4.36H189.327ZM189.327 10.456H190.607V9.224H189.327V10.456ZM199.074 8.424V13H200.242V8.36C200.242 6.312 198.706 4.904 197.058 4.904C195.954 4.904 195.058 5.56 194.658 6.392V1.128H193.49V13H194.658V8.744C194.658 7.208 195.746 6.104 197.01 6.104C198.226 6.104 199.074 6.904 199.074 8.424ZM208.364 8.232H203.212C203.484 6.92 204.588 5.944 205.868 5.944C207.116 5.944 208.076 6.936 208.364 8.232ZM202.028 8.936C202.028 11.16 203.692 13.048 205.868 13.048C208.124 13.048 209.132 11.224 209.132 11.224L208.156 10.728C208.156 10.728 207.436 11.928 205.884 11.928C204.508 11.928 203.34 10.84 203.164 9.336H209.484C209.484 9.336 209.724 8.12 209.18 7.032C209.148 6.952 208.156 4.824 205.868 4.824C203.692 4.824 202.028 6.696 202.028 8.936ZM214.71 7.208V8.2H227.366V7.208H221.638V5.624H225.718V0.471999H224.502V2.056H217.59V0.471999H216.39V5.624H220.438V7.208H214.71ZM216.278 13.976H225.814V9.496H216.278V13.976ZM217.446 13V10.488H224.614V13H217.446ZM217.59 4.632V2.984H224.502V4.632H217.59ZM238.654 9.016C235.678 9.016 233.806 9.992 233.806 11.592C233.806 13.192 235.678 14.136 238.654 14.136C241.646 14.136 243.534 13.192 243.534 11.592C243.534 9.992 241.646 9.016 238.654 9.016ZM232.398 7.704H245.022V6.712H238.83V3.992H237.63V6.712H232.398V7.704ZM233.902 1.864H242.222V2.072C242.222 3.16 242.222 4.216 241.838 5.64L243.022 5.784C243.406 4.328 243.406 3.208 243.406 2.072V0.888H233.902V1.864ZM235.006 11.592C235.006 10.584 236.446 9.976 238.654 9.976C240.894 9.976 242.334 10.584 242.334 11.592C242.334 12.568 240.894 13.192 238.654 13.192C236.446 13.192 235.006 12.568 235.006 11.592ZM256.655 0.183999V2.376H253.071C252.415 1.56 251.391 1.08 250.207 1.08C248.143 1.08 246.607 2.52 246.607 4.568C246.607 6.632 248.143 8.072 250.207 8.072C251.407 8.072 252.447 7.576 253.087 6.744H256.655V10.536H257.887V0.183999H256.655ZM247.759 4.568C247.759 3.176 248.783 2.152 250.207 2.152C251.567 2.152 252.623 3.176 252.623 4.568C252.623 5.976 251.567 7 250.207 7C248.783 7 247.759 5.976 247.759 4.568ZM248.959 13.864H258.271V12.856H250.191V9.464H248.959V13.864ZM253.631 3.4H256.655V5.736H253.631C253.743 5.384 253.807 4.984 253.807 4.568C253.807 4.152 253.743 3.752 253.631 3.4Z" fill="#FFFBEF"/>
</svg>
