<svg width="504" height="56" viewBox="0 0 504 56" fill="none" xmlns="http://www.w3.org/2000/svg">
<path d="M39.9518 32.8012C39.9518 43.9196 31.5692 50.7342 19.9675 50.7342C8.36591 50.7342 0 43.9196 0 32.8012V19.7589C0 8.64046 8.38268 1.8259 19.9675 1.8259C31.5524 1.8259 39.9518 8.68937 39.9518 19.7589V32.8012ZM37.5544 19.7589C37.5544 9.97729 30.0603 3.84745 19.9675 3.84745C9.87479 3.84745 2.39745 9.94468 2.39745 19.6937V32.7359C2.39745 42.5176 9.87479 48.6637 19.9675 48.6637C30.0603 48.6637 37.5544 42.5502 37.5544 32.8012V19.7589ZM56.5328 55.6576V25.5301H43.8246V23.476H56.5328V1.02707H58.9302V55.6576H56.5328Z" fill="#193052"/>
<path d="M119.923 49.6908C112.579 45.7129 107.566 37.2681 105.873 28.3505C104.809 33.9048 102.427 39.141 98.9156 43.6425C98.32 44.3874 97.5572 44.9902 96.6856 45.4049C95.8139 45.8196 94.8563 46.0351 93.886 46.0351C92.9156 46.0351 91.958 45.8196 91.0864 45.4049C90.2147 44.9902 89.452 44.3874 88.8564 43.6425C85.3645 39.1337 82.9945 33.8995 81.9323 28.3505C80.2557 37.2681 75.2261 45.7129 67.8997 49.6908V47.6367C76.4332 41.5231 80.7419 31.0242 80.7419 18.0472V5.62445H71.303V3.5703H92.7459V5.62445H83.2232V18.0472C82.9546 26.3685 85.2934 34.5727 89.9293 41.572C90.3796 42.1943 90.9771 42.7022 91.6716 43.0528C92.366 43.4034 93.137 43.5864 93.9195 43.5864C94.702 43.5864 95.4729 43.4034 96.1674 43.0528C96.8619 42.7022 97.4594 42.1943 97.9097 41.572C102.546 34.5727 104.884 26.3685 104.616 18.0472V5.62445H95.2272V3.5703H116.687V5.62445H107.08V18.0472C107.08 31.0894 111.389 41.5231 119.923 47.6367V49.6908ZM127.836 55.6576V23.0521H115.195V20.998H127.836V1.02707H130.233V55.6576H127.836Z" fill="#193052"/>
<path d="M197.714 1.02707V8.91761H183.664V10.9881H197.714V23.3293H183.664V25.3997H197.714V49.8539C197.714 50.5759 197.419 51.2684 196.894 51.779C196.369 52.2896 195.657 52.5764 194.914 52.5764H156.354C151.492 52.5764 149.648 51.1418 149.648 46.4629V37.6105H147.183V46.5281C147.183 52.7068 149.865 54.6795 156.421 54.6795H195.803C196.937 54.6795 198.025 54.2448 198.832 53.4696C199.638 52.6944 200.098 51.6413 200.111 50.5386V1.02707H197.714Z" fill="#193052"/>
<path d="M179.792 29.9319V2.73886H142.505V23.6064C142.505 28.6929 144.836 29.9319 149.698 29.9319H179.792ZM144.92 23.6064V4.7278H177.394V27.9266H149.715C146.546 27.9266 144.92 27.0463 144.92 23.6064Z" fill="#193052"/>
<path d="M231.68 10.3686V8.29811H250.726V0H253.157V8.29811H272.202V10.3686H231.68ZM268.665 36.453C268.665 45.5825 263.719 50.9298 251.899 50.9298C240.08 50.9298 235.134 45.5825 235.134 36.453V29.345C235.134 20.2154 240.164 14.8681 251.899 14.8681C263.635 14.8681 268.665 20.2154 268.665 29.345V36.453ZM266.267 29.345C266.267 21.1936 261.539 16.9223 251.933 16.9223C242.326 16.9223 237.599 21.2425 237.599 29.345V36.5182C237.599 44.6696 242.326 48.9409 251.933 48.9409C261.539 48.9409 266.267 44.6044 266.267 36.5182V29.345ZM290.041 55.6576V27.9429H279.177V54.6306H276.846V1.02707H279.177V25.8073H290.041V1.02707H292.438V55.6576H290.041Z" fill="#193052"/>
<path d="M355.912 45.9086C350.882 47.7019 334.871 48.0442 328.953 48.0442H301.776V45.9086H311.836L311.198 5.62445H303.453V3.5703H348.485V5.62445H341.074L340.655 45.6477C346.59 45.3706 352.944 44.8163 355.912 43.7892V45.9086ZM338.66 5.62445H313.512L314.149 45.9086H328.836C330.948 45.9086 334.335 45.9086 338.14 45.7782L338.66 5.62445ZM360.455 55.6576V1.02707H362.852V55.6576H360.455Z" fill="#193052"/>
<path d="M431.859 1.02707V49.9354C431.859 50.6574 431.564 51.3499 431.039 51.8605C430.514 52.3711 429.801 52.6579 429.059 52.6579H390.633C385.771 52.6579 383.927 51.2233 383.927 46.5444V37.6105H381.462V46.5281C381.462 52.7068 384.144 54.6795 390.7 54.6795H430.082C431.186 54.6377 432.232 54.1846 433.003 53.4138C433.774 52.643 434.211 51.6136 434.223 50.5386V1.02707H431.859Z" fill="#193052"/>
<path d="M393.684 32.2632C403.626 32.2632 409.276 25.7421 410.047 18.5362H420.425V32.2632H422.755V1.02707H420.425V16.4658H410.198C409.98 8.64046 404.263 1.36943 393.684 1.36943H390.918C380.188 1.36943 374.404 8.8524 374.404 16.8081C374.404 24.7639 380.188 32.2632 390.918 32.2632H393.684ZM376.801 16.8081C376.772 15.0135 377.12 13.2321 377.824 11.5728C378.528 9.91359 379.572 8.41148 380.894 7.15847C382.216 5.90546 383.786 4.92793 385.51 4.28572C387.233 3.64351 389.073 3.35014 390.918 3.42358H393.684C395.528 3.35014 397.368 3.64351 399.092 4.28572C400.816 4.92793 402.386 5.90546 403.708 7.15847C405.029 8.41148 406.074 9.91359 406.778 11.5728C407.481 13.2321 407.829 15.0135 407.8 16.8081C407.829 18.6028 407.481 20.3842 406.778 22.0435C406.074 23.7027 405.029 25.2048 403.708 26.4578C402.386 27.7108 400.816 28.6884 399.092 29.3306C397.368 29.9728 395.528 30.2662 393.684 30.1927H390.918C389.073 30.2662 387.233 29.9728 385.51 29.3306C383.786 28.6884 382.216 27.7108 380.894 26.4578C379.572 25.2048 378.528 23.7027 377.824 22.0435C377.12 20.3842 376.772 18.6028 376.801 16.8081Z" fill="#193052"/>
<path d="M497.227 26.2148C491.443 27.6658 477.611 28.0081 470.268 28.0081H454.66C449.932 28.0081 447.115 25.9377 447.115 20.8675V2.73886H484.67V4.7278H449.462V20.8675C449.374 21.5481 449.446 22.2393 449.672 22.889C449.899 23.5386 450.274 24.1299 450.77 24.618C451.265 25.1062 451.868 25.4787 452.533 25.7072C453.198 25.9358 453.908 26.0146 454.609 25.9377H470.218C477.41 25.9377 491.174 25.7421 497.176 24.2259L497.227 26.2148ZM497.227 38.6213C493.609 37.211 489.718 36.5878 485.826 36.7953H467.384C455.649 36.7953 451.86 40.2189 451.86 45.3706C451.86 50.5223 455.464 53.9458 467.384 53.9458H485.826C497.763 53.9458 501.603 50.506 501.603 45.3706H504C504 51.8917 499.457 56 485.826 56H467.384C453.771 56 449.462 51.8917 449.462 45.3706C449.462 38.8495 454.039 34.7249 467.384 34.7249H485.826C489.689 34.593 493.546 35.1114 497.227 36.2573V38.6213ZM501.603 45.5499V1.02707H504V45.5499H501.603Z" fill="#193052"/>
</svg>
